<?xml version="1.0" encoding="UTF-8" standalone="no"?>
<!-- Created with Inkscape (http://www.inkscape.org/) -->

<svg
   width="169.51595mm"
   height="158.51761mm"
   viewBox="0 0 169.51595 158.51761"
   version="1.1"
   id="svg5"
   sodipodi:docname="eng-planetarias.svg"
   inkscape:version="1.2 (dc2aedaf03, 2022-05-15)"
   inkscape:export-filename="eng-planetarias.png"
   inkscape:export-xdpi="96"
   inkscape:export-ydpi="96"
   xmlns:inkscape="http://www.inkscape.org/namespaces/inkscape"
   xmlns:sodipodi="http://sodipodi.sourceforge.net/DTD/sodipodi-0.dtd"
   xmlns="http://www.w3.org/2000/svg"
   xmlns:svg="http://www.w3.org/2000/svg">
  <sodipodi:namedview
     id="namedview7"
     pagecolor="#ffffff"
     bordercolor="#000000"
     borderopacity="0.25"
     inkscape:showpageshadow="2"
     inkscape:pageopacity="0.0"
     inkscape:pagecheckerboard="0"
     inkscape:deskcolor="#d1d1d1"
     inkscape:document-units="mm"
     showgrid="false"
     showguides="true"
     inkscape:zoom="1.0154442"
     inkscape:cx="225.51706"
     inkscape:cy="266.87827"
     inkscape:window-width="1920"
     inkscape:window-height="947"
     inkscape:window-x="1920"
     inkscape:window-y="32"
     inkscape:window-maximized="1"
     inkscape:current-layer="layer1">
    <sodipodi:guide
       position="76.567901,129.86408"
       orientation="1,0"
       id="guide132"
       inkscape:locked="false" />
    <sodipodi:guide
       position="170.13173,77.997174"
       orientation="0,-1"
       id="guide184"
       inkscape:locked="false" />
  </sodipodi:namedview>
  <defs
     id="defs2">
    <marker
       style="overflow:visible"
       id="marker4663"
       refX="0"
       refY="0"
       orient="auto-start-reverse"
       inkscape:stockid="TriangleStart"
       markerWidth="5.3244081"
       markerHeight="6.155385"
       viewBox="0 0 5.3244081 6.1553851"
       inkscape:isstock="true"
       inkscape:collect="always"
       preserveAspectRatio="xMidYMid">
      <path
         transform="scale(0.5)"
         style="fill:context-stroke;fill-rule:evenodd;stroke:context-stroke;stroke-width:1pt"
         d="M 5.77,0 -2.88,5 V -5 Z"
         id="path4661" />
    </marker>
    <marker
       style="overflow:visible"
       id="marker3816"
       refX="0"
       refY="0"
       orient="auto-start-reverse"
       inkscape:stockid="TriangleStart"
       markerWidth="5.3244081"
       markerHeight="6.155385"
       viewBox="0 0 5.3244081 6.1553851"
       inkscape:isstock="true"
       inkscape:collect="always"
       preserveAspectRatio="xMidYMid">
      <path
         transform="scale(0.5)"
         style="fill:context-stroke;fill-rule:evenodd;stroke:context-stroke;stroke-width:1pt"
         d="M 5.77,0 -2.88,5 V -5 Z"
         id="path3814" />
    </marker>
    <marker
       style="overflow:visible"
       id="TriangleStart"
       refX="0"
       refY="0"
       orient="auto-start-reverse"
       inkscape:stockid="TriangleStart"
       markerWidth="5.3244081"
       markerHeight="6.155385"
       viewBox="0 0 5.3244081 6.1553851"
       inkscape:isstock="true"
       inkscape:collect="always"
       preserveAspectRatio="xMidYMid">
      <path
         transform="scale(0.5)"
         style="fill:context-stroke;fill-rule:evenodd;stroke:context-stroke;stroke-width:1pt"
         d="M 5.77,0 -2.88,5 V -5 Z"
         id="path135" />
    </marker>
  </defs>
  <g
     inkscape:label="Camada 1"
     inkscape:groupmode="layer"
     id="layer1"
     transform="translate(-4.3505716,-36.402012)">
    <circle
       style="fill:#ffffff;stroke:#000000;stroke-width:0.5;stroke-dasharray:none"
       id="path525"
       cx="72.64286"
       cy="123.64021"
       r="76.195717"
       transform="rotate(-3.858954)" />
    <g
       inkscape:label="Rendered Gears"
       transform="matrix(1.0177382,0.07097796,-0.07097796,1.0177382,80.839217,117.18616)"
       id="g516"
       style="fill:#ffffff;stroke-width:0.490095;stroke-dasharray:none">
      <path
         style="fill:#ffffff;stroke:#000000;stroke-width:0.490095;stroke-dasharray:none"
         d="m 65.6659,-1.82506 1.6967,0.50223 1.6941,0.64997 v 1.34572 l -1.6941,0.64997 -1.6967,0.50223 -0.0593,1.50759 1.6521,0.63381 1.6379,0.78089 -0.1056,1.34156 -1.7398,0.51505 -1.731,0.36755 -0.1773,1.49831 1.5973,0.76147 1.5716,0.90701 -0.2106,1.3291 -1.7749,0.377 -1.7544,0.2306 -0.2944,1.4798 1.5327,0.8844 1.4955,1.0275 -0.3141,1.3085 -1.799,0.2366 -1.7672,0.0922 -0.4095,1.4521 1.4585,1.002 1.4103,1.1417 -0.4158,1.2798 -1.812,0.0947 -1.7689,-0.0467 -0.5223,1.4155 1.3755,1.1133 1.3164,1.2488 -0.515,1.2433 -1.8139,-0.0478 -1.7598,-0.1853 -0.6317,1.3701 1.2839,1.2178 1.2143,1.3483 -0.6109,1.199 -1.8045,-0.19 -1.7399,-0.3228 -0.7372,1.3164 1.1843,1.3148 1.1049,1.4393 -0.7031,1.1474 -1.7841,-0.3309 -1.7091,-0.4584 -0.8383,1.2545 1.0775,1.4036 0.9885,1.5217 -0.791,1.0887 -1.7526,-0.47 -1.6679,-0.591 -0.934,1.1849 0.964,1.4838 0.8661,1.5945 -0.8739,1.0233 -1.7104,-0.606 -1.6164,-0.7201 -1.0241,1.108 0.8446,1.5549 0.7383,1.6575 -0.9515,0.9515 -1.6575,-0.7383 -1.5549,-0.8446 -1.108,1.0241 0.7201,1.6164 0.606,1.7104 -1.0233,0.8739 -1.5945,-0.8661 -1.4838,-0.964 -1.1849,0.934 0.591,1.6679 0.47,1.7526 -1.0887,0.791 -1.5217,-0.9885 -1.4036,-1.0775 -1.2545,0.8383 0.4584,1.7091 0.3309,1.7841 -1.1474,0.7031 -1.4393,-1.1049 -1.3148,-1.1843 -1.3164,0.7372 0.3228,1.7399 0.19,1.8045 -1.199,0.6109 -1.3483,-1.2143 -1.2178,-1.2839 -1.3701,0.6317 0.1853,1.7598 0.0478,1.8139 -1.2433,0.515 -1.2488,-1.3164 -1.1133,-1.3755 -1.4155,0.5223 0.0467,1.7689 -0.0947,1.812 -1.2798,0.4158 -1.1417,-1.4103 -1.002,-1.4585 -1.4521,0.4095 -0.0922,1.7672 -0.2366,1.799 -1.3085,0.3141 -1.0275,-1.4955 -0.8844,-1.5327 -1.4798,0.2944 -0.2306,1.7544 -0.377,1.7749 -1.3291,0.2106 L 9.23129,66.7402 8.46982,65.1429 6.97151,65.3202 6.60396,67.0512 6.08891,68.791 4.74735,68.8966 3.96646,67.2587 3.33265,65.6066 1.82506,65.6659 1.32283,67.3626 0.67286,69.0567 h -1.34572 l -0.64997,-1.6941 -0.50223,-1.6967 -1.50759,-0.0593 -0.63381,1.6521 -0.78089,1.6379 -1.34156,-0.1056 -0.51505,-1.7398 -0.36755,-1.731 -1.49831,-0.1773 -0.76147,1.5973 -0.90701,1.5716 -1.3291,-0.2106 -0.377,-1.7749 -0.2306,-1.7544 -1.4798,-0.2944 -0.8844,1.5327 -1.0275,1.4955 -1.3085,-0.3141 -0.2366,-1.799 -0.0922,-1.7672 -1.4521,-0.4095 -1.002,1.4585 -1.1417,1.4103 -1.2798,-0.4158 -0.0947,-1.812 0.0467,-1.7689 -1.4155,-0.5223 -1.1133,1.3755 -1.2488,1.3164 -1.2433,-0.515 0.0478,-1.8139 0.1853,-1.7598 -1.3701,-0.6317 -1.2178,1.2839 -1.3483,1.2143 -1.199,-0.6109 0.19,-1.8045 0.3228,-1.7399 -1.3164,-0.7372 -1.3148,1.1843 -1.4393,1.1049 -1.1474,-0.7031 0.3309,-1.7841 0.4584,-1.7091 -1.2545,-0.8383 -1.4036,1.0775 -1.5217,0.9885 -1.0887,-0.791 0.47,-1.7526 0.591,-1.6679 -1.1849,-0.934 -1.4838,0.964 -1.5945,0.8661 -1.0233,-0.8739 0.606,-1.7104 0.7201,-1.6164 -1.108,-1.0241 -1.5549,0.8446 -1.6575,0.7383 -0.9515,-0.9515 0.7383,-1.6575 0.8446,-1.5549 -1.0241,-1.108 -1.6164,0.7201 -1.7104,0.606 -0.8739,-1.0233 0.8661,-1.5945 0.964,-1.4838 -0.934,-1.1849 -1.6679,0.591 -1.7526,0.47 -0.791,-1.0887 0.9885,-1.5217 1.0775,-1.4036 -0.8383,-1.2545 -1.7091,0.4584 -1.7841,0.3309 -0.7031,-1.1474 1.1049,-1.4393 1.1843,-1.3148 -0.7372,-1.3164 -1.7399,0.3228 -1.8045,0.19 -0.6109,-1.199 1.2143,-1.3483 1.2839,-1.2178 -0.6317,-1.3701 -1.7598,0.1853 -1.8139,0.0478 -0.515,-1.2433 1.3164,-1.2488 1.3755,-1.1133 -0.5223,-1.4155 -1.7689,0.0467 -1.812,-0.0947 -0.4158,-1.2798 1.4103,-1.1417 1.4585,-1.002 -0.4095,-1.4521 -1.7672,-0.0922 -1.799,-0.2366 -0.3141,-1.3085 1.4955,-1.0275 1.5327,-0.8844 -0.2944,-1.4798 -1.7544,-0.2306 -1.7749,-0.377 -0.2106,-1.3291 1.5716,-0.90701 1.5973,-0.76147 -0.1773,-1.49831 -1.731,-0.36755 -1.7398,-0.51505 -0.1056,-1.34156 1.6379,-0.78089 1.6521,-0.63381 -0.0593,-1.50759 -1.6967,-0.50223 -1.6941,-0.64997 v -1.34572 l 1.6941,-0.64997 1.6967,-0.50223 0.0593,-1.50759 -1.6521,-0.63381 -1.6379,-0.78089 0.1056,-1.34156 1.7398,-0.51505 1.731,-0.36755 0.1773,-1.49831 -1.5973,-0.76147 -1.5716,-0.90701 0.2106,-1.3291 1.7749,-0.377 1.7544,-0.2306 0.2944,-1.4798 -1.5327,-0.8844 -1.4955,-1.0275 0.3141,-1.3085 1.799,-0.2366 1.7672,-0.0922 0.4095,-1.4521 -1.4585,-1.002 -1.4103,-1.1417 0.4158,-1.2798 1.812,-0.0947 1.7689,0.0467 0.5223,-1.4155 -1.3755,-1.1133 -1.3164,-1.2488 0.515,-1.2433 1.8139,0.0478 1.7598,0.1853 0.6317,-1.3701 -1.2839,-1.2178 -1.2143,-1.3483 0.6109,-1.199 1.8045,0.19 1.7399,0.3228 0.7372,-1.3164 -1.1843,-1.3148 -1.1049,-1.4393 0.7031,-1.1474 1.7841,0.3309 1.7091,0.4584 0.8383,-1.2545 -1.0775,-1.4036 -0.9885,-1.5217 0.791,-1.0887 1.7526,0.47 1.6679,0.591 0.934,-1.1849 -0.964,-1.4838 -0.8661,-1.5945 0.8739,-1.0233 1.7104,0.606 1.6164,0.7201 1.0241,-1.108 -0.8446,-1.5549 -0.7383,-1.6575 0.9515,-0.9515 1.6575,0.7383 1.5549,0.8446 1.108,-1.0241 -0.7201,-1.6164 -0.606,-1.7104 1.0233,-0.8739 1.5945,0.8661 1.4838,0.964 1.1849,-0.934 -0.591,-1.6679 -0.47,-1.7526 1.0887,-0.791 1.5217,0.9885 1.4036,1.0775 1.2545,-0.8383 -0.4584,-1.7091 -0.3309,-1.7841 1.1474,-0.7031 1.4393,1.1049 1.3148,1.1843 1.3164,-0.7372 -0.3228,-1.7399 -0.19,-1.8045 1.199,-0.6109 1.3483,1.2143 1.2178,1.2839 1.3701,-0.6317 -0.1853,-1.7598 -0.0478,-1.8139 1.2433,-0.515 1.2488,1.3164 1.1133,1.3755 1.4155,-0.5223 -0.0467,-1.7689 0.0947,-1.812 1.2798,-0.4158 1.1417,1.4103 1.002,1.4585 1.4521,-0.4095 0.0922,-1.7672 0.2366,-1.799 1.3085,-0.3141 1.0275,1.4955 0.8844,1.5327 1.4798,-0.2944 0.2306,-1.7544 0.377,-1.7749 1.3291,-0.2106 0.90701,1.5716 0.76147,1.5973 1.49831,-0.1773 0.36755,-1.731 0.51505,-1.7398 1.34156,-0.1056 0.78089,1.6379 0.63381,1.6521 1.50759,-0.0593 0.50223,-1.6967 0.64997,-1.6941 h 1.34572 l 0.64997,1.6941 0.50223,1.6967 1.50759,0.0593 0.63381,-1.6521 0.78089,-1.6379 1.34156,0.1056 0.51505,1.7398 0.36755,1.731 1.49831,0.1773 0.76147,-1.5973 0.90701,-1.5716 1.3291,0.2106 0.377,1.7749 0.2306,1.7544 1.4798,0.2944 0.8844,-1.5327 1.0275,-1.4955 1.3085,0.3141 0.2366,1.799 0.0922,1.7672 1.4521,0.4095 1.002,-1.4585 1.1417,-1.4103 1.2798,0.4158 0.0947,1.812 -0.0467,1.7689 1.4155,0.5223 1.1133,-1.3755 1.2488,-1.3164 1.2433,0.515 -0.0478,1.8139 -0.1853,1.7598 1.3701,0.6317 1.2178,-1.2839 1.3483,-1.2143 1.199,0.6109 -0.19,1.8045 -0.3228,1.7399 1.3164,0.7372 1.3148,-1.1843 1.4393,-1.1049 1.1474,0.7031 -0.3309,1.7841 -0.4584,1.7091 1.2545,0.8383 1.4036,-1.0775 1.5217,-0.9885 1.0887,0.791 -0.47,1.7526 -0.591,1.6679 1.1849,0.934 1.4838,-0.964 1.5945,-0.8661 1.0233,0.8739 -0.606,1.7104 -0.7201,1.6164 1.108,1.0241 1.5549,-0.8446 1.6575,-0.7383 0.9515,0.9515 -0.7383,1.6575 -0.8446,1.5549 1.0241,1.108 1.6164,-0.7201 1.7104,-0.606 0.8739,1.0233 -0.8661,1.5945 -0.964,1.4838 0.934,1.1849 1.6679,-0.591 1.7526,-0.47 0.791,1.0887 -0.9885,1.5217 -1.0775,1.4036 0.8383,1.2545 1.7091,-0.4584 1.7841,-0.3309 0.7031,1.1474 -1.1049,1.4393 -1.1843,1.3148 0.7372,1.3164 1.7399,-0.3228 1.8045,-0.19 0.6109,1.199 -1.2143,1.3483 -1.2839,1.2178 0.6317,1.3701 1.7598,-0.1853 1.8139,-0.0478 0.515,1.2433 -1.3164,1.2488 -1.3755,1.1133 0.5223,1.4155 1.7689,-0.0467 1.812,0.0947 0.4158,1.2798 -1.4103,1.1417 -1.4585,1.002 0.4095,1.4521 1.7672,0.0922 1.799,0.2366 0.3141,1.3085 -1.4955,1.0275 -1.5327,0.8844 0.2944,1.4798 1.7544,0.2306 1.7749,0.377 0.2106,1.3291 -1.5716,0.90701 -1.5973,0.76147 0.1773,1.49831 1.731,0.36755 1.7398,0.51505 0.1056,1.34156 -1.6379,0.78089 -1.6521,0.63381 z"
         id="path512" />
      <circle
         style="fill:#ffffff;stroke:#000000;stroke-width:0.490095;stroke-dasharray:none"
         id="path514"
         cx="0"
         cy="0"
         r="2.6458333" />
    </g>
    <rect
       style="fill:#ffffff;stroke:#ff0000;stroke-width:0.499999;stroke-dasharray:2, 0.499999;stroke-dashoffset:0"
       id="rect2625"
       width="64.184731"
       height="13.630421"
       x="0.91704679"
       y="135.21089"
       ry="6.8152103"
       transform="matrix(0.85592484,-0.51710024,0.51681973,0.85609425,0,0)"
       inkscape:transform-center-x="-20.954493"
       inkscape:transform-center-y="-12.598664" />
    <g
       inkscape:label="Rendered Gears"
       transform="rotate(0.74546521,-6896.3163,9668.3846)"
       id="g481"
       style="stroke-width:0.5;stroke-dasharray:none">
      <path
         style="fill:none;stroke:#000000;stroke-width:0.5;stroke-dasharray:none"
         d="m 15.0934,-1.41451 0.6656,-0.06238 1.033,0.15533 1.7271,0.73643 v 1.17026 l -1.7271,0.73643 -1.033,0.15533 -0.6656,-0.06238 -0.3016,1.90432 0.6523,0.14637 0.9344,0.46693 1.415,1.23408 -0.3616,1.11298 -1.8702,0.16669 -1.0304,-0.17146 -0.6138,-0.26504 -0.8753,1.71792 0.5752,0.3408 0.7444,0.73281 0.9644,1.61089 -0.6879,0.9468 -1.8301,-0.4194 -0.927,-0.4814 -0.5018,-0.4418 -1.3634,1.3634 0.4418,0.5018 0.4814,0.927 0.4194,1.8301 -0.9468,0.6879 L 8.80091,14.3618 8.0681,13.6174 7.7273,13.0422 6.00938,13.9175 6.27442,14.5313 6.44588,15.5617 6.27919,17.4319 5.16621,17.7935 3.93213,16.3785 3.4652,15.4441 3.31883,14.7918 1.41451,15.0934 1.47689,15.759 1.32156,16.792 0.58513,18.5191 h -1.17026 l -0.73643,-1.7271 -0.15533,-1.033 0.06238,-0.6656 -1.90432,-0.3016 -0.14637,0.6523 -0.46693,0.9344 -1.23408,1.415 -1.11298,-0.3616 -0.16669,-1.8702 0.17146,-1.0304 0.26504,-0.6138 -1.71792,-0.8753 -0.3408,0.5752 -0.73281,0.7444 -1.61089,0.9644 -0.9468,-0.6879 0.4194,-1.8301 0.4814,-0.927 0.4418,-0.5018 -1.3634,-1.3634 -0.5018,0.4418 -0.927,0.4814 -1.8301,0.4194 -0.6879,-0.9468 0.9644,-1.61089 0.7444,-0.73281 0.5752,-0.3408 -0.8753,-1.71792 -0.6138,0.26504 -1.0304,0.17146 -1.8702,-0.16669 -0.3616,-1.11298 1.415,-1.23408 0.9344,-0.46693 0.6523,-0.14637 -0.3016,-1.90432 -0.6656,0.06238 -1.033,-0.15533 -1.7271,-0.73643 v -1.17026 l 1.7271,-0.73643 1.033,-0.15533 0.6656,0.06238 0.3016,-1.90432 -0.6523,-0.14637 -0.9344,-0.46693 -1.415,-1.23408 0.3616,-1.11298 1.8702,-0.16669 1.0304,0.17146 0.6138,0.26504 0.8753,-1.71792 -0.5752,-0.3408 -0.7444,-0.73281 -0.9644,-1.61089 0.6879,-0.9468 1.8301,0.4194 0.927,0.4814 0.5018,0.4418 1.3634,-1.3634 -0.4418,-0.5018 -0.4814,-0.927 -0.4194,-1.8301 0.9468,-0.6879 1.61089,0.9644 0.73281,0.7444 0.3408,0.5752 1.71792,-0.8753 -0.26504,-0.6138 -0.17146,-1.0304 0.16669,-1.8702 1.11298,-0.3616 1.23408,1.415 0.46693,0.9344 0.14637,0.6523 1.90432,-0.3016 -0.06238,-0.6656 0.15533,-1.033 0.73643,-1.7271 h 1.17026 l 0.73643,1.7271 0.15533,1.033 -0.06238,0.6656 1.90432,0.3016 0.14637,-0.6523 0.46693,-0.9344 1.23408,-1.415 1.11298,0.3616 0.16669,1.8702 -0.17146,1.0304 -0.26504,0.6138 1.71792,0.8753 0.3408,-0.5752 0.73281,-0.7444 1.61089,-0.9644 0.9468,0.6879 -0.4194,1.8301 -0.4814,0.927 -0.4418,0.5018 1.3634,1.3634 0.5018,-0.4418 0.927,-0.4814 1.8301,-0.4194 0.6879,0.9468 -0.9644,1.61089 -0.7444,0.73281 -0.5752,0.3408 0.8753,1.71792 0.6138,-0.26504 1.0304,-0.17146 1.8702,0.16669 0.3616,1.11298 -1.415,1.23408 -0.9344,0.46693 -0.6523,0.14637 z"
         id="path477" />
      <circle
         style="fill:none;stroke:#000000;stroke-width:0.5;stroke-dasharray:none"
         id="path479"
         cx="0"
         cy="0"
         r="2.6458333" />
    </g>
    <g
       inkscape:label="Rendered Gears"
       transform="matrix(1.0339118,-0.11538971,0.11538971,1.0339118,80.708634,117.2508)"
       id="g2201"
       style="stroke-width:0.480616;stroke-dasharray:none">
      <path
         style="fill:none;stroke:#000000;stroke-width:0.480616;stroke-dasharray:none"
         d="m 31.9583,-1.69847 1.7035,0.37589 1.7046,0.68199 v 1.28118 l -1.7046,0.68199 -1.7035,0.37589 -0.1278,1.62335 1.6238,0.63776 1.5769,0.94024 -0.2004,1.26541 -1.7903,0.40693 -1.7413,0.10478 -0.3802,1.58338 1.504,0.88391 1.4104,1.17537 -0.3959,1.2185 -1.8319,0.1218 -1.7363,-0.1689 -0.6231,1.5044 1.3471,1.1083 1.2092,1.3815 -0.5816,1.1416 -1.8284,-0.1662 -1.6885,-0.4385 -0.8509,1.3884 1.1573,1.3054 0.9781,1.5537 -0.753,1.0365 -1.7799,-0.4502 -1.5991,-0.6972 -1.0576,1.2382 0.9388,1.4704 0.7231,1.6875 -0.906,0.906 -1.6875,-0.7231 -1.4704,-0.9388 -1.2382,1.0576 0.6972,1.5991 0.4502,1.7799 -1.0365,0.753 -1.5537,-0.9781 -1.3054,-1.1573 -1.3884,0.8509 0.4385,1.6885 0.1662,1.8284 -1.1416,0.5816 -1.3815,-1.2092 -1.1083,-1.3471 -1.5044,0.6231 0.1689,1.7363 -0.1218,1.8319 -1.2185,0.3959 L 9.14423,32.423 8.26032,30.919 6.67694,31.2992 6.57216,33.0405 6.16523,34.8308 4.89982,35.0312 3.95958,33.4543 3.32182,31.8305 1.69847,31.9583 1.32258,33.6618 0.64059,35.3664 h -1.28118 l -0.68199,-1.7046 -0.37589,-1.7035 -1.62335,-0.1278 -0.63776,1.6238 -0.94024,1.5769 -1.26541,-0.2004 -0.40693,-1.7903 -0.10478,-1.7413 -1.58338,-0.3802 -0.88391,1.504 -1.17537,1.4104 -1.2185,-0.3959 -0.1218,-1.8319 0.1689,-1.7363 -1.5044,-0.6231 -1.1083,1.3471 -1.3815,1.2092 -1.1416,-0.5816 0.1662,-1.8284 0.4385,-1.6885 -1.3884,-0.8509 -1.3054,1.1573 -1.5537,0.9781 -1.0365,-0.753 0.4502,-1.7799 0.6972,-1.5991 -1.2382,-1.0576 -1.4704,0.9388 -1.6875,0.7231 -0.906,-0.906 0.7231,-1.6875 0.9388,-1.4704 -1.0576,-1.2382 -1.5991,0.6972 -1.7799,0.4502 -0.753,-1.0365 0.9781,-1.5537 1.1573,-1.3054 -0.8509,-1.3884 -1.6885,0.4385 -1.8284,0.1662 -0.5816,-1.1416 1.2092,-1.3815 1.3471,-1.1083 -0.6231,-1.5044 -1.7363,0.1689 -1.8319,-0.1218 -0.3959,-1.2185 1.4104,-1.17537 1.504,-0.88391 -0.3802,-1.58338 -1.7413,-0.10478 -1.7903,-0.40693 -0.2004,-1.26541 1.5769,-0.94024 1.6238,-0.63776 -0.1278,-1.62335 -1.7035,-0.37589 -1.7046,-0.68199 v -1.28118 l 1.7046,-0.68199 1.7035,-0.37589 0.1278,-1.62335 -1.6238,-0.63776 -1.5769,-0.94024 0.2004,-1.26541 1.7903,-0.40693 1.7413,-0.10478 0.3802,-1.58338 -1.504,-0.88391 -1.4104,-1.17537 0.3959,-1.2185 1.8319,-0.1218 1.7363,0.1689 0.6231,-1.5044 -1.3471,-1.1083 -1.2092,-1.3815 0.5816,-1.1416 1.8284,0.1662 1.6885,0.4385 0.8509,-1.3884 -1.1573,-1.3054 -0.9781,-1.5537 0.753,-1.0365 1.7799,0.4502 1.5991,0.6972 1.0576,-1.2382 -0.9388,-1.4704 -0.7231,-1.6875 0.906,-0.906 1.6875,0.7231 1.4704,0.9388 1.2382,-1.0576 -0.6972,-1.5991 -0.4502,-1.7799 1.0365,-0.753 1.5537,0.9781 1.3054,1.1573 1.3884,-0.8509 -0.4385,-1.6885 -0.1662,-1.8284 1.1416,-0.5816 1.3815,1.2092 1.1083,1.3471 1.5044,-0.6231 -0.1689,-1.7363 0.1218,-1.8319 1.2185,-0.3959 1.17537,1.4104 0.88391,1.504 1.58338,-0.3802 0.10478,-1.7413 0.40693,-1.7903 1.26541,-0.2004 0.94024,1.5769 0.63776,1.6238 1.62335,-0.1278 0.37589,-1.7035 0.68199,-1.7046 h 1.28118 l 0.68199,1.7046 0.37589,1.7035 1.62335,0.1278 0.63776,-1.6238 0.94024,-1.5769 1.26541,0.2004 0.40693,1.7903 0.10478,1.7413 1.58338,0.3802 0.88391,-1.504 1.17537,-1.4104 1.2185,0.3959 0.1218,1.8319 -0.1689,1.7363 1.5044,0.6231 1.1083,-1.3471 1.3815,-1.2092 1.1416,0.5816 -0.1662,1.8284 -0.4385,1.6885 1.3884,0.8509 1.3054,-1.1573 1.5537,-0.9781 1.0365,0.753 -0.4502,1.7799 -0.6972,1.5991 1.2382,1.0576 1.4704,-0.9388 1.6875,-0.7231 0.906,0.906 -0.7231,1.6875 -0.9388,1.4704 1.0576,1.2382 1.5991,-0.6972 1.7799,-0.4502 0.753,1.0365 -0.9781,1.5537 -1.1573,1.3054 0.8509,1.3884 1.6885,-0.4385 1.8284,-0.1662 0.5816,1.1416 -1.2092,1.3815 -1.3471,1.1083 0.6231,1.5044 1.7363,-0.1689 1.8319,0.1218 0.3959,1.2185 -1.4104,1.17537 -1.504,0.88391 0.3802,1.58338 1.7413,0.10478 1.7903,0.40693 0.2004,1.26541 -1.5769,0.94024 -1.6238,0.63776 z"
         id="path2197" />
      <circle
         style="fill:none;stroke:#000000;stroke-width:0.480616;stroke-dasharray:none"
         id="path2199"
         cx="0"
         cy="0"
         r="2.6458333" />
    </g>
    <text
       xml:space="preserve"
       style="font-size:3.175px;fill:#000000;stroke:none;stroke-width:0.2;stroke-dasharray:none;stroke-dashoffset:0"
       x="128.70218"
       y="91.586479"
       id="text6464"><tspan
         sodipodi:role="line"
         id="tspan6462"
         style="stroke-width:0.2;stroke:none"
         x="128.70218"
         y="91.586479">O<tspan
   style="font-size:65%;baseline-shift:sub;stroke:none"
   id="tspan6466">3</tspan></tspan></text>
    <text
       xml:space="preserve"
       style="font-size:3.175px;fill:#000000;stroke:none;stroke-width:0.2;stroke-dasharray:none;stroke-dashoffset:0"
       x="119.52835"
       y="120.80954"
       id="text6470"><tspan
         sodipodi:role="line"
         id="tspan6468"
         style="stroke-width:0.2;stroke:none"
         x="119.52835"
         y="120.80954">V<tspan
   style="font-size:65%;baseline-shift:sub;stroke:none"
   id="tspan6472">A</tspan></tspan></text>
    <text
       xml:space="preserve"
       style="font-size:3.175px;fill:#000000;stroke:none;stroke-width:0.2;stroke-dasharray:none;stroke-dashoffset:0"
       x="133.24883"
       y="115.38079"
       id="text6476"><tspan
         sodipodi:role="line"
         id="tspan6474"
         style="stroke-width:0.2;stroke:none"
         x="133.24883"
         y="115.38079">V<tspan
   style="font-size:65%;baseline-shift:sub;stroke:none"
   id="tspan6478">O3</tspan></tspan></text>
    <text
       xml:space="preserve"
       style="font-size:3.175px;fill:#000000;stroke:none;stroke-width:0.2;stroke-dasharray:none;stroke-dashoffset:0"
       x="151.47728"
       y="109.06183"
       id="text6482"><tspan
         sodipodi:role="line"
         id="tspan6480"
         style="stroke-width:0.2;stroke:none"
         x="151.47728"
         y="109.06183">V<tspan
   style="font-size:65%;baseline-shift:sub;stroke:none"
   id="tspan6484">B</tspan></tspan></text>
    <text
       xml:space="preserve"
       style="font-size:4.44735px;fill:#000000;stroke:none;stroke-width:0.200001;stroke-dasharray:none;stroke-dashoffset:0"
       x="90.799843"
       y="159.52652"
       id="text7274"
       transform="scale(0.99095671,1.0091258)"><tspan
         sodipodi:role="line"
         id="tspan7272"
         style="stroke-width:0.200001;stroke:none"
         x="90.799843"
         y="159.52652"><tspan
           style="font-style:normal;font-variant:normal;font-weight:normal;font-stretch:normal;font-family:Z003;-inkscape-font-specification:Z003;stroke-width:0.200001;stroke:none"
           id="tspan7278">w</tspan><tspan
           style="font-size:2.89078px;baseline-shift:sub;stroke-width:0.200001;stroke:none"
           id="tspan7276">solar</tspan></tspan></text>
    <text
       xml:space="preserve"
       style="font-size:4.44735px;fill:#ff0000;stroke:none;stroke-width:0.200001;stroke-dasharray:none;stroke-dashoffset:0"
       x="94.268417"
       y="127.16668"
       id="text7286"
       transform="scale(0.99095672,1.0091258)"><tspan
         sodipodi:role="line"
         id="tspan7284"
         style="font-style:normal;font-variant:normal;font-weight:normal;font-stretch:normal;font-family:Z003;-inkscape-font-specification:Z003;stroke-width:0.200001;stroke:none;fill:#ff0000"
         x="94.268417"
         y="127.16668">w<tspan
   style="font-style:normal;font-variant:normal;font-weight:normal;font-stretch:normal;font-size:65%;font-family:sans-serif;-inkscape-font-specification:sans-serif;baseline-shift:sub;stroke:none;fill:#ff0000"
   id="tspan7288">braço</tspan></tspan></text>
    <text
       xml:space="preserve"
       style="font-size:4.44735px;fill:#ff0000;stroke:none;stroke-width:0.200001;stroke-dasharray:none;stroke-dashoffset:0"
       x="162.75945"
       y="69.175331"
       id="text7295"
       transform="scale(0.99095672,1.0091258)"><tspan
         sodipodi:role="line"
         id="tspan7293"
         style="font-style:normal;font-variant:normal;font-weight:normal;font-stretch:normal;font-family:Z003;-inkscape-font-specification:Z003;stroke-width:0.200001;stroke:none;fill:#ff0000"
         x="162.75945"
         y="69.175331">w<tspan
   style="font-style:normal;font-variant:normal;font-weight:normal;font-stretch:normal;font-size:65%;font-family:sans-serif;-inkscape-font-specification:sans-serif;baseline-shift:sub;stroke:none;fill:#ff0000"
   id="tspan7291">anel</tspan></tspan></text>
    <text
       xml:space="preserve"
       style="font-size:4.44735px;fill:#ff0000;stroke:none;stroke-width:0.200001;stroke-dasharray:none;stroke-dashoffset:0"
       x="137.18753"
       y="104.8728"
       id="text7301"
       transform="scale(0.99095672,1.0091258)"><tspan
         sodipodi:role="line"
         id="tspan7299"
         style="font-style:normal;font-variant:normal;font-weight:normal;font-stretch:normal;font-family:Z003;-inkscape-font-specification:Z003;stroke-width:0.200001;fill:#ff0000;stroke:none"
         x="137.18753"
         y="104.8728">w<tspan
   style="font-style:normal;font-variant:normal;font-weight:normal;font-stretch:normal;font-size:65%;font-family:sans-serif;-inkscape-font-specification:sans-serif;baseline-shift:sub;fill:#ff0000;stroke:none"
   id="tspan7297">planeta</tspan></tspan></text>
  </g>
  <g
     inkscape:groupmode="layer"
     id="layer3"
     inkscape:label="Camada 3"
     transform="translate(-4.3505716,-36.402012)">
    <text
       xml:space="preserve"
       style="font-size:3.175px;fill:#000000;stroke:none;stroke-width:0.2;stroke-dasharray:none;stroke-dashoffset:0"
       x="75.670753"
       y="122.59988"
       id="text6458"><tspan
         sodipodi:role="line"
         id="tspan6456"
         style="stroke-width:0.2;stroke-dasharray:none;stroke:none"
         x="75.670753"
         y="122.59988">O<tspan
   style="font-size:65%;baseline-shift:sub;stroke:none"
   id="tspan6460">2</tspan></tspan></text>
  </g>
  <g
     inkscape:groupmode="layer"
     id="layer2"
     inkscape:label="Camada 2"
     transform="translate(-4.3505716,-36.402012)">
    <path
       style="fill:#ff0000;stroke:#ff0000;stroke-width:0.3;stroke-dasharray:none;stroke-dashoffset:0"
       d="M 80.991511,117.04836 139.79554,81.767346"
       id="path3527"
       sodipodi:nodetypes="cc" />
    <path
       style="fill:#ff0000;stroke:#0000ff;stroke-width:0.3;stroke-dasharray:none;stroke-dashoffset:0;marker-end:url(#marker3816)"
       d="m 110.71686,99.170798 9.22173,15.972512"
       id="path3529" />
    <path
       style="fill:#ff0000;stroke:#0000ff;stroke-width:0.3;stroke-dasharray:none;stroke-dashoffset:0;marker-end:url(#TriangleStart)"
       d="m 125.43953,90.294901 12.98841,22.496579"
       id="path3594" />
    <path
       style="fill:#ff0000;stroke:#0000ff;stroke-width:0.3;stroke-dasharray:none;stroke-dashoffset:0;marker-end:url(#marker4663)"
       d="m 139.92684,82.059588 13.22702,22.909872"
       id="path4659" />
    <path
       style="fill:none;stroke:#0000ff;stroke-width:0.3;stroke-dasharray:none;stroke-dashoffset:0;marker-end:url(#marker4663)"
       id="path4881"
       sodipodi:type="arc"
       sodipodi:cx="80.803146"
       sodipodi:cy="117.04035"
       sodipodi:rx="42.780819"
       sodipodi:ry="42.780819"
       sodipodi:start="1.1179817"
       sodipodi:end="2.1683937"
       sodipodi:open="true"
       sodipodi:arc-type="arc"
       d="M 99.519679,155.50969 A 42.780819,42.780819 0 0 1 56.732182,152.40682" />
    <path
       style="fill:none;stroke:#0000ff;stroke-width:0.3;stroke-dasharray:none;stroke-dashoffset:0;marker-end:url(#marker4663)"
       id="path5025"
       sodipodi:type="arc"
       sodipodi:cx="80.866425"
       sodipodi:cy="117.15099"
       sodipodi:rx="20.686132"
       sodipodi:ry="20.686132"
       sodipodi:start="4.928688"
       sodipodi:end="0.320237"
       sodipodi:arc-type="arc"
       d="m 85.306007,96.94688 a 20.686132,20.686132 0 0 1 13.541664,9.97715 20.686132,20.686132 0 0 1 1.653219,16.73878"
       sodipodi:open="true" />
    <path
       style="fill:none;stroke:#0000ff;stroke-width:0.3;stroke-dasharray:none;stroke-dashoffset:0;marker-end:url(#marker4663)"
       id="path5155"
       sodipodi:type="arc"
       sodipodi:cx="125.52174"
       sodipodi:cy="90.399857"
       sodipodi:rx="20.231596"
       sodipodi:ry="20.231596"
       sodipodi:start="0.66916067"
       sodipodi:end="1.6224872"
       sodipodi:arc-type="arc"
       d="m 141.39025,102.95008 a 20.231596,20.231596 0 0 1 -16.91383,7.65435"
       sodipodi:open="true" />
    <path
       style="fill:none;stroke:#0000ff;stroke-width:0.3;stroke-dasharray:none;stroke-dashoffset:0;marker-end:url(#marker4663)"
       id="path5375"
       sodipodi:type="arc"
       sodipodi:cx="81.201149"
       sodipodi:cy="117.23009"
       sodipodi:rx="92.646553"
       sodipodi:ry="92.646553"
       sodipodi:start="5.2259012"
       sodipodi:end="6.1495999"
       sodipodi:arc-type="arc"
       d="m 126.7128,36.532666 a 92.646553,92.646553 0 0 1 46.30949,68.357974"
       sodipodi:open="true" />
    <text
       xml:space="preserve"
       style="font-size:3.175px;fill:#000000;stroke:#0000ff;stroke-width:0.3;stroke-dasharray:none;stroke-dashoffset:0"
       x="66.707794"
       y="129.20815"
       id="text5565"><tspan
         sodipodi:role="line"
         id="tspan5563"
         style="fill:#000000;stroke-width:0.3"
         x="66.707794"
         y="129.20815" /></text>
  </g>
</svg>
