<?xml version="1.0" encoding="UTF-8" standalone="no"?>
<!-- Created with Inkscape (http://www.inkscape.org/) -->

<svg
   width="105.92741mm"
   height="95.136688mm"
   viewBox="0 0 105.92741 95.136688"
   version="1.1"
   id="svg5"
   inkscape:version="1.1 (ce6663b3b7, 2021-05-25)"
   sodipodi:docname="fig6-0.svg"
   xmlns:inkscape="http://www.inkscape.org/namespaces/inkscape"
   xmlns:sodipodi="http://sodipodi.sourceforge.net/DTD/sodipodi-0.dtd"
   xmlns="http://www.w3.org/2000/svg"
   xmlns:svg="http://www.w3.org/2000/svg">
  <sodipodi:namedview
     id="namedview7"
     pagecolor="#ffffff"
     bordercolor="#999999"
     borderopacity="1"
     inkscape:pageshadow="0"
     inkscape:pageopacity="0"
     inkscape:pagecheckerboard="0"
     inkscape:document-units="mm"
     showgrid="false"
     showguides="false"
     inkscape:zoom="3.633312"
     inkscape:cx="226.51509"
     inkscape:cy="154.26696"
     inkscape:window-width="1920"
     inkscape:window-height="1016"
     inkscape:window-x="0"
     inkscape:window-y="27"
     inkscape:window-maximized="1"
     inkscape:current-layer="layer1" />
  <defs
     id="defs2">
    <marker
       style="overflow:visible;"
       id="marker1165"
       refX="0.0"
       refY="0.0"
       orient="auto"
       inkscape:stockid="Arrow2Lend"
       inkscape:isstock="true">
      <path
         transform="scale(1.1) rotate(180) translate(1,0)"
         d="M 8.7185878,4.0337352 L -2.2072895,0.016013256 L 8.7185884,-4.0017078 C 6.9730900,-1.6296469 6.9831476,1.6157441 8.7185878,4.0337352 z "
         style="fill-rule:evenodd;fill:context-stroke;stroke-width:0.62500000;stroke-linejoin:round;"
         id="path925" />
    </marker>
    <inkscape:path-effect
       effect="spiro"
       id="path-effect2113"
       is_visible="true"
       lpeversion="1" />
    <inkscape:path-effect
       effect="simplify"
       id="path-effect2111"
       is_visible="true"
       lpeversion="1"
       steps="1"
       threshold="0.00243902"
       smooth_angles="360"
       helper_size="0"
       simplify_individual_paths="false"
       simplify_just_coalesce="false" />
    <inkscape:path-effect
       effect="simplify"
       id="path-effect2105"
       is_visible="true"
       lpeversion="1"
       steps="1"
       threshold="0.00243902"
       smooth_angles="360"
       helper_size="0"
       simplify_individual_paths="false"
       simplify_just_coalesce="false" />
    <inkscape:path-effect
       effect="simplify"
       id="path-effect2099"
       is_visible="true"
       lpeversion="1"
       steps="1"
       threshold="0.00243902"
       smooth_angles="360"
       helper_size="0"
       simplify_individual_paths="false"
       simplify_just_coalesce="false" />
    <inkscape:path-effect
       effect="spiro"
       id="path-effect1982"
       is_visible="true"
       lpeversion="1" />
    <inkscape:path-effect
       effect="spiro"
       id="path-effect1978"
       is_visible="true"
       lpeversion="1" />
    <marker
       style="overflow:visible"
       id="Arrow2Lend"
       refX="0"
       refY="0"
       orient="auto"
       inkscape:stockid="Arrow2Lend"
       inkscape:isstock="true">
      <path
         transform="matrix(-1.1,0,0,-1.1,-1.1,0)"
         d="M 8.7185878,4.0337352 -2.2072895,0.01601326 8.7185884,-4.0017078 c -1.7454984,2.3720609 -1.7354408,5.6174519 -6e-7,8.035443 z"
         style="fill:context-stroke;fill-rule:evenodd;stroke-width:0.625;stroke-linejoin:round"
         id="path1680" />
    </marker>
    <marker
       style="overflow:visible"
       id="Arrow1Lend"
       refX="0"
       refY="0"
       orient="auto"
       inkscape:stockid="Arrow1Lend"
       inkscape:isstock="true">
      <path
         transform="matrix(-0.8,0,0,-0.8,-10,0)"
         style="fill:context-stroke;fill-rule:evenodd;stroke:context-stroke;stroke-width:1pt"
         d="M 0,0 5,-5 -12.5,0 5,5 Z"
         id="path1662" />
    </marker>
    <marker
       style="overflow:visible"
       id="Arrow1Lstart"
       refX="0"
       refY="0"
       orient="auto"
       inkscape:stockid="Arrow1Lstart"
       inkscape:isstock="true">
      <path
         transform="matrix(0.8,0,0,0.8,10,0)"
         style="fill:context-stroke;fill-rule:evenodd;stroke:context-stroke;stroke-width:1pt"
         d="M 0,0 5,-5 -12.5,0 5,5 Z"
         id="path1659" />
    </marker>
    <inkscape:path-effect
       effect="spiro"
       id="path-effect1657"
       is_visible="true"
       lpeversion="1" />
  </defs>
  <g
     inkscape:label="Camada 1"
     inkscape:groupmode="layer"
     id="layer1"
     transform="translate(-31.452162,-85.741373)">
    <rect
       style="fill:#ffffff;stroke:#ffffff;stroke-width:0.739437;stroke-linejoin:bevel;stroke-miterlimit:4;stroke-dasharray:none"
       id="rect3233"
       width="105.18797"
       height="93.885368"
       x="32.045666"
       y="86.352768" />
  </g>
  <g
     inkscape:groupmode="layer"
     id="layer2"
     inkscape:label="Camada 2"
     transform="translate(-31.452162,-85.741373)"
     style="display:inline">
    <g
       inkscape:label="Layer 1"
       id="layer1-6"
       transform="matrix(0.69061673,0,0,0.68927526,16.706309,61.240545)"
       style="stroke-width:1.07174;stroke-miterlimit:4;stroke-dasharray:none">
      <path
         id="path839"
         style="fill:#ffffff;stroke:#000000;stroke-width:4.05064;stroke-linejoin:bevel;stroke-miterlimit:4;stroke-dasharray:none"
         d="M 219.92383,480 A 39.999999,39.999999 0 0 0 180,520 a 39.999999,39.999999 0 0 0 0,0.0762 V 590 h 80 v -70 a 39.999999,39.999999 0 0 0 -40,-40 39.999999,39.999999 0 0 0 -0.0762,0 z"
         transform="scale(0.26458333)" />
      <path
         style="fill:none;stroke:#000000;stroke-width:1.07174;stroke-linecap:butt;stroke-linejoin:miter;stroke-miterlimit:4;stroke-dasharray:none;stroke-opacity:1"
         d="M 22.489583,156.10416 H 99.218749"
         id="path850" />
      <path
         style="fill:none;stroke:#000000;stroke-width:1.07174;stroke-linecap:butt;stroke-linejoin:miter;stroke-miterlimit:4;stroke-dasharray:none;stroke-opacity:1"
         d="m 22.489583,156.10416 9.929222,17.19792"
         id="path852" />
      <path
         style="fill:none;stroke:#000000;stroke-width:1.07174;stroke-linecap:butt;stroke-linejoin:miter;stroke-miterlimit:4;stroke-dasharray:none;stroke-opacity:1"
         d="m 39.952094,156.10416 9.929222,17.19792"
         id="path854" />
      <path
         style="fill:none;stroke:#000000;stroke-width:1.07174;stroke-linecap:butt;stroke-linejoin:miter;stroke-miterlimit:4;stroke-dasharray:none;stroke-opacity:1"
         d="m 56.885438,156.10416 9.929222,17.19792"
         id="path856" />
      <path
         style="fill:none;stroke:#000000;stroke-width:1.07174;stroke-linecap:butt;stroke-linejoin:miter;stroke-miterlimit:4;stroke-dasharray:none;stroke-opacity:1"
         d="m 74.347949,156.10416 9.929222,17.19792"
         id="path858" />
      <path
         style="fill:none;stroke:#000000;stroke-width:1.07174;stroke-linecap:butt;stroke-linejoin:miter;stroke-miterlimit:4;stroke-dasharray:none;stroke-opacity:1"
         d="m 91.81046,156.10416 9.92923,17.19792"
         id="path860" />
      <circle
         style="fill:#ffffff;stroke:#000000;stroke-width:1.07174;stroke-linejoin:bevel;stroke-miterlimit:4;stroke-dasharray:none"
         id="path1592"
         cx="58.266396"
         cy="137.45695"
         r="3.6994057" />
    </g>
    <rect
       style="fill:#ffffff;stroke:#000000;stroke-width:0.739438;stroke-linejoin:bevel;stroke-miterlimit:4;stroke-dasharray:none"
       id="rect376"
       width="11.871069"
       height="52.928196"
       x="133.7755"
       y="43.565292"
       ry="5.9355345"
       inkscape:transform-center-x="-12.424676"
       inkscape:transform-center-y="-15.924705"
       transform="rotate(37.223896)" />
    <circle
       style="fill:#ffffff;stroke:#000000;stroke-width:0.739438;stroke-linejoin:bevel;stroke-miterlimit:4;stroke-dasharray:none"
       id="path1487"
       cx="57.123299"
       cy="156.10735"
       r="3.594425" />
    <circle
       style="fill:#ffffff;stroke:#000000;stroke-width:0.739438;stroke-linejoin:bevel;stroke-miterlimit:4;stroke-dasharray:none"
       id="circle1569"
       cx="80.865425"
       cy="124.75904"
       r="3.594425" />
    <path
       style="fill:none;stroke:#ff0000;stroke-width:0.687678;stroke-linecap:butt;stroke-linejoin:miter;stroke-miterlimit:4;stroke-dasharray:none;stroke-opacity:1;marker-end:"
       d="M 57.241521,156.00096 81.29107,124.54624"
       id="path1655"
       inkscape:path-effect="#path-effect1657"
       inkscape:original-d="M 57.241521,156.00096 C 65.211136,145.55901 73.274946,135.03153 81.29107,124.54624" />
    <path
       style="fill:none;stroke:#000000;stroke-width:0.391286px;stroke-linecap:butt;stroke-linejoin:miter;stroke-opacity:1;marker-end:url(#Arrow2Lend)"
       d="M 57.241521,156.00037 H 134.02237"
       id="path1976"
       inkscape:path-effect="#path-effect1978"
       inkscape:original-d="m 57.241521,156.00037 c 25.593974,3.4e-4 51.187589,3.4e-4 76.780849,0" />
    <path
       style="fill:none;stroke:#000000;stroke-width:0.391286px;stroke-linecap:butt;stroke-linejoin:miter;stroke-opacity:1;marker-end:url(#Arrow2Lend)"
       d="M 57.241521,156.00096 V 86.408987"
       id="path1980"
       inkscape:path-effect="#path-effect1982"
       inkscape:original-d="m 57.241521,156.00096 c 3.91e-4,-23.19694 3.91e-4,-46.39425 0,-69.591973" />
    <path
       style="fill:none;stroke:#000000;stroke-width:0.391286px;stroke-linecap:butt;stroke-linejoin:miter;stroke-opacity:1"
       d="m 68.14966,141.64942 c 2.334489,1.40947 4.288854,3.44201 5.605732,5.82996 1.174228,2.12927 1.843031,4.54827 1.833013,6.97984 -0.0017,0.40564 -0.02194,0.8112 -0.06072,1.21499"
       id="path2109"
       inkscape:path-effect="#path-effect2111;#path-effect2113"
       inkscape:original-d="m 68.14966,141.64942 c 5.170574,2.77557 7.887728,9.20846 7.378025,14.02479" />
    <path
       style="fill:#000000;stroke:#000000;stroke-width:0.391286px;stroke-linecap:butt;stroke-linejoin:miter;stroke-opacity:1"
       d="m 68.14966,141.64942 1.810074,4.95474 3.035262,-4.36012 z"
       id="path2152" />
    <g
       id="g2378"
       transform="matrix(1.4788769,0,0,1.4788769,-45.648971,-64.141004)">
      <path
         style="fill:#000000;stroke:#000000;stroke-width:0.465;stroke-linejoin:bevel;stroke-miterlimit:4;stroke-dasharray:none"
         id="path2292"
         d="m 84.449694,141.1357 c -0.167539,0.18734 -0.320424,0.38697 -0.462547,0.59407 -0.155834,0.21199 -0.235403,0.45686 -0.293542,0.70996 -0.05561,0.28502 -0.06725,0.57601 -0.06665,0.86565 0.0011,0.28697 0.05627,0.56764 0.13897,0.84117 0.0679,0.22415 0.174442,0.42905 0.32549,0.60744 0.238493,0.27814 0.465458,0.46031 0.812176,0.54706 0.230632,0.0473 0.466264,0.048 0.699029,0.0198 0.214093,-0.0321 0.406315,-0.1208 0.587452,-0.23525 0.169484,-0.10826 0.310763,-0.24928 0.441052,-0.40089 0.126185,-0.14874 0.199176,-0.33015 0.265872,-0.51101 0.05599,-0.16437 0.08884,-0.33518 0.116956,-0.50614 0.0268,-0.1922 0.03793,-0.3863 0.04779,-0.57999 0.01508,-0.19764 -0.0118,-0.39305 -0.05246,-0.58586 -0.03837,-0.17775 -0.113672,-0.3426 -0.200678,-0.50108 -0.155691,-0.25103 -0.376626,-0.45792 -0.609515,-0.63766 -0.133824,-0.0991 -0.285899,-0.16437 -0.441635,-0.21991 -0.124148,-0.0472 -0.253156,-0.0713 -0.385019,-0.0817 -0.09553,-0.0111 -0.189923,-0.006 -0.284176,0.0108 -0.07897,0.0139 -0.15354,0.0437 -0.229425,0.0684 -0.07353,0.0238 -0.142029,0.0591 -0.20904,0.0971 -0.08791,0.0584 -0.165761,0.13029 -0.244482,0.2002 -0.09896,0.0974 -0.02146,0.16022 0.04628,0.27364 0,0 0.0073,0.007 0.0073,0.007 v 0 c 0.128627,0.0607 0.143772,0.0951 0.233576,0.0109 0.07869,-0.0659 0.151265,-0.14001 0.238313,-0.19508 0.06478,-0.0368 0.131699,-0.0701 0.202785,-0.093 0.07227,-0.0271 0.145428,-0.0527 0.221403,-0.0673 0.09051,-0.0149 0.181065,-0.0181 0.272529,-0.008 0.127812,0.0136 0.253503,0.0379 0.374086,0.084 0.151146,0.0541 0.297043,0.12186 0.425654,0.21943 0.101849,0.0805 0.341985,0.31066 -0.06757,-0.091 -0.09303,-0.0912 0.252563,0.25289 0.155303,0.19716 0.09267,0.15538 0.171227,0.31891 0.212383,0.49617 0.04398,0.19065 0.07366,0.38377 0.0608,0.58025 -0.0091,0.19255 -0.02056,0.38539 -0.0455,0.57661 -0.02713,0.16929 -0.05836,0.33839 -0.111823,0.50168 -0.06334,0.17785 -0.133128,0.35619 -0.255903,0.50262 -0.126899,0.14926 -0.265906,0.28818 -0.430617,0.3961 -0.177091,0.11102 -0.365104,0.19636 -0.574148,0.22629 -0.230196,0.0248 -0.462839,0.0224 -0.689714,-0.0292 -0.141583,-0.0393 -0.271142,-0.0902 -0.392043,-0.17578 -0.02832,-0.02 -0.103291,-0.0916 -0.08185,-0.0643 0.05171,0.0658 0.115816,0.12078 0.173725,0.18118 -0.156244,-0.17247 -0.265795,-0.37334 -0.335266,-0.59601 -0.08591,-0.2709 -0.144407,-0.54894 -0.147389,-0.83445 -0.0021,-0.28721 0.0096,-0.57583 0.06212,-0.85885 0.05571,-0.24914 0.132905,-0.49041 0.284826,-0.6997 0.140859,-0.20711 0.295257,-0.40401 0.454176,-0.59751 0,0 -0.249034,-0.24456 -0.249034,-0.24456 z" />
      <path
         style="fill:#000000;stroke:#000000;stroke-width:0.465;stroke-linejoin:bevel;stroke-miterlimit:4;stroke-dasharray:none"
         id="path2294"
         d="m 84.390046,143.42638 c 0.276974,0.0476 0.557012,0.0732 0.837063,0.0941 0.225713,0.0148 0.451942,0.0203 0.678103,0.0202 0.168698,-7.9e-4 0.336862,-0.0123 0.504312,-0.0322 0.105412,-0.0139 0.210489,-0.0304 0.314952,-0.0502 0.05244,-0.008 -0.04122,-0.0992 -0.07442,-0.14047 0,0 -0.0067,-0.007 -0.0067,-0.007 v 0 c -0.02731,-0.0278 -0.101012,-0.13109 -0.157972,-0.12122 -0.101663,0.0214 -0.203726,0.0414 -0.306731,0.0552 -0.165709,0.0191 -0.332076,0.0301 -0.498904,0.0326 -0.223443,0.002 -0.447016,-0.003 -0.67015,-0.0148 -0.278082,-0.0177 -0.555947,-0.0442 -0.830471,-0.0931 0,0 0.210968,0.25731 0.210968,0.25731 z" />
    </g>
    <path
       style="fill:#000000;stroke:#000000;stroke-width:0.687678;stroke-linejoin:bevel;stroke-miterlimit:4;stroke-dasharray:none"
       id="path2446"
       d="m 80.265528,122.95689 c 0.191664,-0.57218 0.368302,-1.14915 0.541195,-1.72723 0.25526,-0.83345 0.435591,-1.68689 0.608235,-2.54047 0.164567,-0.8139 0.291168,-1.63459 0.410198,-2.45615 0.103374,-0.67996 0.185609,-1.36264 0.25716,-2.04657 0.04826,-0.45334 0.07689,-0.90823 0.107973,-1.36292 0.0016,-0.21892 0.02907,-0.43998 0.01257,-0.65878 -0.01999,-0.0296 -0.04,-0.0592 -0.06,-0.0886 0,0 -0.315791,-0.26954 -0.315791,-0.26954 v 0 c -0.01992,-0.004 -0.03983,-0.009 -0.05975,-0.0133 -0.01909,0.21929 0.0083,0.44182 -0.0062,0.66153 -0.0035,0.46221 -0.04061,0.92303 -0.07947,1.38342 -0.05901,0.68759 -0.144249,1.37246 -0.243297,2.0554 -0.116713,0.82248 -0.243451,1.64361 -0.402556,2.45912 -0.169505,0.85469 -0.349348,1.70812 -0.597333,2.54416 -0.169474,0.57683 -0.349458,1.15048 -0.547781,1.71811 0,0 0.374758,0.34238 0.374758,0.34238 z" />
    <path
       style="fill:#000000;stroke:#000000;stroke-width:0.687678;stroke-linejoin:bevel;stroke-miterlimit:4;stroke-dasharray:none"
       id="path2448"
       d="m 79.637626,111.21833 c 0.732078,0.004 1.464029,-0.0118 2.196075,-0.0133 0.918826,-0.003 1.829513,0.12556 2.724111,0.32624 0.670672,0.15979 1.255939,0.48663 1.780677,0.92433 0.07489,0.0722 0.165025,0.13132 0.22466,0.21649 0.04969,0.071 -0.169321,-0.2559 -0.194139,-0.17288 -0.02732,0.0914 0.121667,0.147 0.179123,0.22312 0.152515,0.20204 0.260822,0.4037 0.357576,0.63629 0.145965,0.47023 0.09531,0.95664 -0.03671,1.42234 -0.198304,0.56564 -0.656702,0.92857 -1.143983,1.24117 -0.732609,0.43355 -1.562453,0.57946 -2.394895,0.67557 -1.020044,0.0991 -2.043123,0.0933 -3.061036,-0.0176 -0.364623,-0.046 -0.726908,-0.10855 -1.085842,-0.18724 -0.153998,-0.0339 -0.29928,-0.0852 -0.457285,-0.0778 0.02031,0.1974 0.03224,0.10766 -0.01933,0.27097 0,0 0.0102,0.0104 0.0102,0.0104 v 0 c 0.224128,0.0133 0.101318,-0.0161 0.352947,0.13842 0.50375,0.19573 1.055843,0.22806 1.585562,0.30619 1.017399,0.0877 2.038284,0.094 3.055629,-0.009 0.839512,-0.10027 1.675854,-0.25494 2.413343,-0.69427 0.498194,-0.32041 0.968625,-0.69078 1.176817,-1.26715 0.141794,-0.47305 0.194348,-0.96921 0.06173,-1.45215 -0.275144,-0.69923 -0.811222,-1.22481 -1.364246,-1.72236 -0.528754,-0.42806 -1.116313,-0.74512 -1.78747,-0.89014 -0.896303,-0.19296 -1.807918,-0.31534 -2.726623,-0.31065 -0.731893,0.003 -1.46373,0.0167 -2.195664,0.0133 0,0 0.348789,0.40839 0.348789,0.40839 z" />
    <path
       style="fill:#000000;stroke:#000000;stroke-width:0.687678;stroke-linejoin:bevel;stroke-miterlimit:4;stroke-dasharray:none"
       id="path2450"
       d="m 42.052589,157.03882 c 0.399242,-0.90184 0.746906,-1.82471 1.095664,-2.74685 0.385253,-1.00166 0.733893,-2.0165 1.064722,-3.03722 0.155266,-0.47305 0.283189,-0.9543 0.425221,-1.43131 0.04162,-0.10722 0.05778,-0.22544 0.104764,-0.33075 0.08586,-0.0639 0.143821,-0.15956 0.201587,-0.24819 0.08515,-0.0741 0.114081,-0.30815 0.2015,-0.36655 0.14073,0.22042 -0.0797,-0.13636 -0.250755,-0.21286 -0.08808,-0.0393 0.123205,0.14876 0.179185,0.22735 0.330899,0.46468 0.612883,0.96609 0.905362,1.4549 0.762057,1.28346 1.504886,2.57804 2.226618,3.88457 0.440479,0.7791 0.821509,1.58945 1.239731,2.38019 0.166363,0.24391 0.07622,0.12438 0.271503,0.35773 0,0 0.01109,0.0103 0.01109,0.0103 v 0 c 0.187644,0.0723 0.163444,0.11802 0.152112,-0.0302 -0.392292,-0.80641 -0.818497,-1.59658 -1.24384,-2.38581 -0.72418,-1.30569 -1.467758,-2.60034 -2.226262,-3.8864 -0.189896,-0.32155 -0.43675,-0.74447 -0.637714,-1.06759 -0.198927,-0.31983 -0.685318,-1.10006 -1.034658,-1.14574 -0.104734,0.0997 -0.116536,0.27167 -0.208967,0.38335 -0.05967,0.0961 -0.124995,0.18609 -0.200484,0.2703 -0.02192,0.11712 -0.06643,0.2299 -0.08857,0.3471 -0.125837,0.48544 -0.260652,0.96862 -0.402423,1.44964 -0.313603,1.031 -0.658761,2.05146 -1.033837,3.06184 -0.342739,0.92212 -0.694263,1.84114 -1.10178,2.73705 0,0 0.350159,0.32566 0.350159,0.32566 z" />
    <path
       style="fill:#000000;stroke:#000000;stroke-width:0.687678;stroke-linejoin:bevel;stroke-miterlimit:4;stroke-dasharray:none"
       id="path2452"
       d="m 43.526811,155.03892 c 0.902513,0.0516 1.807543,0.004 2.709269,-0.0417 0.662705,-0.0421 1.324595,-0.0998 1.984177,-0.17684 0.26501,-0.0251 0.169083,-0.0881 0.02822,-0.25284 0,0 -0.01065,-0.0104 -0.01065,-0.0104 v 0 c -0.13267,-0.14596 -0.206091,-0.23188 -0.40828,-0.18252 -0.648913,0.0936 -1.301292,0.16172 -1.955702,0.20289 -0.900784,0.0491 -1.805376,0.0952 -2.706723,0.033 0,0 0.359686,0.42832 0.359686,0.42832 z" />
    <g
       id="g2568"
       style="stroke:#ff0000"
       transform="matrix(1.4788769,0,0,1.4788769,-80.525353,-62.906517)">
      <path
         style="fill:#000000;stroke:#ff0000;stroke-width:0.465;stroke-linejoin:bevel;stroke-miterlimit:4;stroke-dasharray:none"
         id="path2462"
         d="m 94.467192,125.89601 c 0.03686,0.45507 0.01127,0.91226 -0.01146,1.36735 -0.03169,0.61334 -0.0872,1.22505 -0.144921,1.83637 -0.04902,0.56047 -0.138805,1.11607 -0.226658,1.67142 -0.04568,0.40555 -0.161485,0.80421 -0.188325,1.21164 0.03208,0.15347 0.0033,0.0827 0.08505,0.21296 0,0 0.0072,0.007 0.0072,0.007 v 0 c 0.116404,0.0502 0.06716,0.0616 0.151569,-0.004 0.112155,-0.38919 0.119645,-0.80387 0.202751,-1.19942 0.08589,-0.5577 0.173278,-1.11563 0.222302,-1.67809 0.05464,-0.61295 0.109416,-1.22609 0.142047,-1.84069 0.02304,-0.4584 0.04839,-0.91886 0.008,-1.3771 0,0 -0.247634,-0.20687 -0.247634,-0.20687 z" />
      <path
         style="fill:#000000;stroke:#ff0000;stroke-width:0.465;stroke-linejoin:bevel;stroke-miterlimit:4;stroke-dasharray:none"
         id="path2466"
         d="m 93.710947,126.39208 c 0.479065,0.007 0.957683,0.0173 1.436036,0.0449 0.533977,0.0295 1.046425,0.15343 1.532488,0.3727 0.196884,0.0981 0.383281,0.21578 0.554329,0.35423 0.05334,0.0432 0.09529,0.10165 0.154969,0.13553 0.04901,0.0278 -0.113208,-0.17254 -0.122153,-0.11689 -0.0097,0.0606 0.07885,0.094 0.118271,0.14103 0.209778,0.26248 0.286986,0.57007 0.294651,0.89911 -0.01175,0.31762 -0.112469,0.56302 -0.309592,0.80792 -0.282125,0.31866 -0.662919,0.45855 -1.06399,0.55993 -0.442809,0.0947 -0.898072,0.0879 -1.347303,0.0563 -0.05958,8e-4 -0.420844,-0.0669 -0.458899,-0.0128 -0.01828,0.026 -0.0039,0.0634 -0.0058,0.0951 0,0 0.0064,0.008 0.0064,0.008 v 0 c 0.0621,0.0401 0.120565,0.0865 0.18629,0.12039 0.15724,0.081 0.354201,0.0605 0.522719,0.0868 0.450149,0.0241 0.905613,0.0267 1.347719,-0.0741 0.406344,-0.1068 0.796113,-0.25196 1.084601,-0.57302 0.212119,-0.25586 0.307478,-0.49271 0.328903,-0.8265 -0.0033,-0.33639 -0.07586,-0.65244 -0.285712,-0.92457 -0.34262,-0.41953 -0.739495,-0.78925 -1.231056,-1.02387 -0.48876,-0.21223 -1.00297,-0.32777 -1.536163,-0.3567 -0.479034,-0.0275 -0.95835,-0.0341 -1.437947,-0.0458 0,0 0.231288,0.27259 0.231288,0.27259 z" />
      <path
         style="fill:#000000;stroke:#ff0000;stroke-width:0.465;stroke-linejoin:bevel;stroke-miterlimit:4;stroke-dasharray:none"
         id="path2468"
         d="m 95.612806,129.9276 c 0.192334,0.32658 0.405106,0.64051 0.622604,0.95068 0.202692,0.28856 0.413375,0.57131 0.624793,0.85348 0.09356,0.12133 0.179636,0.24812 0.250015,0.38428 0.03254,0.0812 0.103108,0.12211 0.170445,0.17645 0,0 0.0061,0.008 0.0061,0.008 v 0 c 0.01111,0.008 0.2106,0.19059 0.135618,0.0574 -0.07288,-0.14029 -0.159968,-0.27254 -0.256744,-0.39754 -0.214003,-0.28342 -0.427712,-0.56709 -0.632169,-0.85753 -0.218046,-0.30855 -0.431774,-0.62074 -0.623091,-0.94677 0,0 -0.297569,-0.2284 -0.297569,-0.2284 z" />
      <path
         style="fill:#000000;stroke:#ff0000;stroke-width:0.465;stroke-linejoin:bevel;stroke-miterlimit:4;stroke-dasharray:none"
         id="path2470"
         d="m 98.269101,133.13023 c 0.285819,-0.31018 0.516371,-0.66311 0.742439,-1.01749 0.223621,-0.33861 0.404289,-0.70174 0.579938,-1.06664 0.05723,-0.11297 0.106339,-0.22975 0.161457,-0.34371 0.0057,-0.0105 0.0114,-0.0216 0.0164,-0.032 0.01699,-0.0447 0.03824,-0.0876 0.05923,-0.13051 0.01828,-0.0429 0.01895,-0.0521 0.06361,-0.0565 0.181005,-0.014 0.361855,-0.008 0.541805,0.0144 0.0402,0.009 0.0811,0.0167 0.12068,0.0285 0.0897,0.0267 0.14916,0.0527 0.22745,0.10505 0.0357,0.0238 0.12874,0.11235 0.10146,0.0792 -0.0548,-0.0665 -0.11441,-0.13116 -0.18498,-0.18063 -0.0345,-0.0242 0.0492,0.0685 0.0738,0.10268 0.16961,0.31087 0.006,0.46482 -0.23768,0.65295 -0.33345,0.22228 -0.716198,0.31531 -1.108729,0.35887 -0.003,2.7e-4 -0.217019,0.015 -0.23637,0.0447 -0.02093,0.0321 0.0016,0.0766 0.0024,0.11486 0,0 0.0065,0.008 0.0065,0.008 v 0 c 0.206512,0.11967 0.248573,0.14973 0.484883,0.12728 0.398086,-0.0485 0.784606,-0.15123 1.124446,-0.37298 0.2533,-0.19404 0.43836,-0.36562 0.27797,-0.69646 -0.21242,-0.32835 -0.50846,-0.60584 -0.89987,-0.66847 -0.18162,-0.0174 -0.365042,-0.0226 -0.546843,-0.004 -0.05205,0.0124 -0.07116,0.0331 -0.0889,0.0823 -0.02082,0.0436 -0.04254,0.0868 -0.06077,0.1315 -0.0036,0.0101 -0.0083,0.023 -0.0123,0.0355 -0.0461,0.11902 -0.09891,0.23543 -0.150921,0.35194 -0.169918,0.36809 -0.344011,0.73505 -0.561507,1.07813 -0.221554,0.3552 -0.440751,0.71676 -0.724675,1.02663 0,0 0.22911,0.22698 0.22911,0.22698 z" />
      <path
         style="fill:#000000;stroke:#ff0000;stroke-width:0.465;stroke-linejoin:bevel;stroke-miterlimit:4;stroke-dasharray:none"
         id="path2472"
         d="m 100.63783,133.18805 c 0.2924,-0.32922 0.52518,-0.70298 0.74752,-1.08123 0.17901,-0.31322 0.35853,-0.62613 0.54089,-0.93742 0.0835,-0.14156 0.16373,-0.28583 0.22552,-0.43833 0.0259,-0.0698 0.0517,-0.13965 0.0795,-0.2087 0.0313,-0.0791 -0.0299,-0.0924 -0.25324,-0.21864 -0.0271,-0.0153 0.0281,0.0556 0.0418,0.0835 0.0175,0.0358 0.0345,0.0719 0.0517,0.10789 0.16017,0.35461 0.32105,0.70884 0.48649,1.06104 0.15537,0.34213 0.309,0.68489 0.47249,1.02324 0.0629,0.12485 0.11834,0.25325 0.17854,0.37937 0.0412,0.0569 0.0989,0.10059 0.15034,0.1472 0,0 0.007,0.007 0.007,0.007 v 0 c 0.0211,0.0141 0.10653,0.10008 0.14972,0.0859 -0.055,-0.13052 -0.12251,-0.25548 -0.18221,-0.38381 -0.16746,-0.33848 -0.32303,-0.68231 -0.47791,-1.0267 -0.16458,-0.35066 -0.32634,-0.70256 -0.48167,-1.05743 -0.0577,-0.12349 -0.31778,-0.70309 -0.42949,-0.47234 -0.0253,0.0704 -0.052,0.1403 -0.0763,0.21107 -0.0586,0.15358 -0.13615,0.29877 -0.21048,0.44512 -0.17375,0.31752 -0.35272,0.63213 -0.52868,0.94842 -0.21819,0.3787 -0.44441,0.75611 -0.72952,1.08918 0,0 0.23816,0.23529 0.23816,0.23529 z" />
      <path
         style="fill:#000000;stroke:#ff0000;stroke-width:0.465;stroke-linejoin:bevel;stroke-miterlimit:4;stroke-dasharray:none"
         id="path2474"
         d="m 101.46418,132.43366 c 0.34528,0.10556 0.70633,0.10877 1.06373,0.0999 0.18916,-0.0284 0.39487,0.0122 0.58122,-0.0379 0.0409,-0.0311 -0.0633,-0.11877 -0.0871,-0.14811 0,0 -0.007,-0.007 -0.007,-0.007 v 0 c -0.0454,-0.0498 -0.0892,-0.12346 -0.15888,-0.13635 -0.1936,-0.009 -0.38814,0.0417 -0.58222,0.0328 -0.35062,0.009 -0.70408,0.007 -1.04333,-0.0951 0,0 0.234,0.2915 0.234,0.2915 z" />
      <path
         style="fill:#000000;stroke:#ff0000;stroke-width:0.465;stroke-linejoin:bevel;stroke-miterlimit:4;stroke-dasharray:none"
         id="path2476"
         d="m 93.641102,124.39433 c 0.553522,0.16822 1.132554,0.23727 1.703335,0.32163 0.783404,0.10899 1.568521,0.20498 2.353309,0.30333 0.284131,0.0346 0.568119,0.0708 0.852729,0.10138 0.08694,0.0111 0.02217,-0.0346 -0.02746,-0.0961 0,0 -0.09871,-0.11566 -0.09871,-0.11566 v 0 c -0.05323,-0.0613 -0.06489,-0.10304 -0.138872,-0.10446 -0.278762,-0.0215 -0.556913,-0.0502 -0.834726,-0.0816 -0.7812,-0.09 -1.562002,-0.1836 -2.341128,-0.29022 -0.569227,-0.0831 -1.146561,-0.15436 -1.697189,-0.32665 0,0 0.228709,0.28826 0.228709,0.28826 z" />
      <path
         style="fill:#000000;stroke:#ff0000;stroke-width:0.465;stroke-linejoin:bevel;stroke-miterlimit:4;stroke-dasharray:none"
         id="path2478"
         d="m 98.421766,124.18703 c -0.07846,0.34851 -0.155001,0.69739 -0.24465,1.04324 -0.02352,0.09 -0.04846,0.17966 -0.07229,0.2696 0.101161,0.0869 0.192143,0.18735 0.303483,0.26079 0.01955,0.0129 0.04579,-0.01 0.06856,-0.0154 0.204949,-0.0492 0.408299,-0.10262 0.614233,-0.14799 0.389257,-0.0798 0.780176,-0.15068 1.168348,-0.23573 0.12387,-0.0426 0.26647,-0.0418 0.38514,-0.10048 0.0977,-0.22613 -0.844574,-0.61442 -0.995784,-0.68559 -0.312608,-0.1443 -0.626025,-0.29057 -0.95632,-0.39016 -0.06421,-0.0152 -0.128305,-0.0414 -0.194795,-0.0432 -0.0499,0.0413 -0.0016,0.12455 0.01246,0.17301 0.04971,0.14756 0.03544,0.31123 0.08655,0.45715 0.100764,0.0997 0.193141,0.20862 0.302292,0.29904 0.0484,0.0401 0.375592,-0.0441 0.441851,-0.0597 0.09719,-0.0333 0.202097,-0.0399 0.2999,-0.0694 -0.0053,-0.0143 -0.01066,-0.0285 -0.01598,-0.0428 0,0 -0.17727,-0.20128 -0.17727,-0.20128 v 0 c -0.01831,-0.0123 -0.03664,-0.0246 -0.05496,-0.0368 -0.103666,0.007 -0.201904,0.0494 -0.303183,0.0694 -0.09236,0.0221 -0.185526,0.0458 -0.280557,0.0533 -0.02775,0.002 -0.05588,0.004 -0.08351,0.001 -0.0186,-0.002 -0.06476,-0.0326 -0.05332,-0.0178 0.0666,0.0863 0.149136,0.15905 0.223703,0.23858 -0.07852,-0.12839 -0.03256,-0.30976 -0.08808,-0.44967 -0.0021,-0.009 -0.02641,-0.16513 -0.05188,-0.1081 0.06149,0.0125 0.12324,0.0246 0.183134,0.044 0.32421,0.10338 0.637011,0.23754 0.944174,0.38363 0.197165,0.0937 0.395715,0.18553 0.587575,0.28997 0.0345,0.0188 0.12324,0.092 0.10208,0.0589 -0.16806,-0.26289 -0.33389,-0.22362 -0.19655,-0.25009 -0.11396,0.0556 -0.2559,0.0534 -0.37295,0.10033 -0.385882,0.0905 -0.775782,0.16115 -1.164138,0.23999 -0.170542,0.037 -0.339965,0.0759 -0.508696,0.12051 -0.03508,0.009 -0.06992,0.0194 -0.105089,0.0283 -0.02133,0.005 -0.07492,-0.005 -0.06434,0.0145 0.05609,0.10215 0.147357,0.18057 0.221035,0.27085 0.0231,-0.0928 0.04036,-0.18701 0.06143,-0.28027 0.07551,-0.35128 0.154215,-0.70191 0.235403,-1.05191 0,0 -0.257024,-0.22968 -0.257024,-0.22968 z" />
    </g>
    <path
       style="fill:#0000ff;stroke:#0000ff;stroke-width:0.739438;stroke-linecap:butt;stroke-linejoin:miter;stroke-miterlimit:4;stroke-dasharray:none;stroke-opacity:1"
       d="m 81.29107,124.54624 -21.998552,-16.53953 5.774023,2.27565 -2.110932,2.60615 -3.663091,-4.8818"
       id="path2621"
       sodipodi:nodetypes="ccccc" />
    <g
       id="g3004"
       transform="matrix(1.4788769,0,0,1.4788769,-80.846387,-69.302215)">
      <path
         style="fill:#0000ff;stroke:#0000ff;stroke-width:0.499999;stroke-linejoin:bevel;stroke-miterlimit:4;stroke-dasharray:none"
         id="path2755"
         d="m 97.26156,114.28301 c 0.06844,0.38955 0.186348,0.76774 0.292515,1.14805 0.118491,0.39902 0.197006,0.80753 0.268343,1.21704 0.04019,0.21678 0.06437,0.43607 0.101388,0.65332 0.02278,0.10147 0.0708,0.19498 0.102982,0.29423 0.02756,0.0898 0.05104,0.18087 0.07118,0.27263 0.145296,0.57623 0.466397,0.0979 0.573392,-0.0479 0.208804,-0.29266 0.396227,-0.5996 0.583504,-0.90623 0.191699,-0.33642 0.399719,-0.6622 0.620993,-0.97979 0.193183,-0.2642 0.386933,-0.52782 0.574693,-0.79594 0.13132,-0.18019 0.25999,-0.36229 0.39041,-0.54313 0.063,-0.0904 0.10305,-0.0833 0.0409,-0.18579 0,0 -0.1748,-0.16587 -0.1748,-0.16587 v 0 c -0.0989,-0.0577 -0.0842,-0.002 -0.14867,0.0784 -0.12832,0.18346 -0.24997,0.37154 -0.37969,0.55404 -0.186256,0.26984 -0.378561,0.53525 -0.567722,0.80301 -0.216826,0.32183 -0.42413,0.6496 -0.616326,0.98683 -0.187497,0.30488 -0.373184,0.61155 -0.584676,0.90068 -0.05049,0.0675 -0.08497,0.11659 -0.139769,0.17898 -0.01765,0.0201 -0.03565,0.04 -0.05547,0.0579 -0.01426,0.0129 -0.05602,0.0176 -0.04641,0.0342 0.106598,0.18458 0.31872,0.34161 0.212572,0.26247 -0.01789,-0.0928 -0.04092,-0.18469 -0.06842,-0.27514 -0.03029,-0.0999 -0.06963,-0.19542 -0.106733,-0.29171 -0.04483,-0.21821 -0.06673,-0.4406 -0.109318,-0.65926 -0.07295,-0.41471 -0.155252,-0.82783 -0.279384,-1.23085 -0.113197,-0.38107 -0.235458,-0.76082 -0.304589,-1.15313 0,0 -0.250909,-0.20706 -0.250909,-0.20706 z" />
      <path
         style="fill:#0000ff;stroke:#0000ff;stroke-width:0.499999;stroke-linejoin:bevel;stroke-miterlimit:4;stroke-dasharray:none"
         id="path2759"
         d="m 100.20718,119.2103 c 0.0974,-0.50916 0.20037,-1.01715 0.31601,-1.52249 0.0948,-0.38681 0.19661,-0.77332 0.34338,-1.1441 0.0622,-0.14802 0.10935,-0.24056 0.26517,-0.2929 0.25883,-0.0529 0.49921,0.0786 0.70422,0.22204 -0.0502,-0.0483 -0.0836,-0.12552 -0.15054,-0.14493 -0.0511,-0.0148 0.0663,0.0836 0.0947,0.12871 0.0277,0.0441 0.0521,0.0904 0.073,0.13801 0.0613,0.13991 0.0801,0.27009 0.0809,0.42063 -0.0422,0.31803 -0.26732,0.35354 -0.54297,0.39809 -0.0848,0.0309 -0.3453,-0.007 -0.41724,0.0404 -0.29261,0.19133 0.19259,0.007 -0.12325,0.1133 0,0 0.006,0.008 0.006,0.008 v 0 c 0.20365,0.0556 0.0918,0.0167 0.33074,0.12946 0.14526,0.0465 0.31399,0.007 0.46083,7.9e-4 0.2983,-0.0514 0.52604,-0.10327 0.57568,-0.4418 0.002,-0.50171 -0.24317,-0.75657 -0.61267,-1.08713 -0.21539,-0.14004 -0.4649,-0.26471 -0.72799,-0.19616 -0.16167,0.063 -0.21893,0.16319 -0.27971,0.32224 -0.13998,0.37905 -0.22844,0.77466 -0.32658,1.16593 -0.11376,0.50714 -0.22137,1.01575 -0.313342,1.52736 0,0 0.243302,0.21488 0.243302,0.21488 z" />
      <path
         style="fill:#0000ff;stroke:#0000ff;stroke-width:0.499999;stroke-linejoin:bevel;stroke-miterlimit:4;stroke-dasharray:none"
         id="path2761"
         d="m 102.11366,119.43602 c 0.14208,-0.34966 0.27749,-0.70198 0.41547,-1.05327 0.1104,-0.28113 0.22338,-0.56124 0.33227,-0.84296 0.0463,-0.12266 0.0835,-0.24853 0.1313,-0.37066 0.0202,-0.0551 0.0461,-0.10736 0.074,-0.15884 -0.008,-0.002 0.0117,-0.0103 0.008,-0.0134 -0.29115,-0.21945 -0.29706,-0.28158 -0.22427,-0.10512 0.0641,0.15529 0.0207,0.0551 0.0941,0.2191 0.1671,0.35282 0.3736,0.68458 0.55504,1.02982 0.11893,0.23737 0.21879,0.48451 0.27111,0.74525 0.004,0.11111 0.0597,0.20638 0.0879,0.31068 0,0 0.007,0.008 0.007,0.008 v 0 c 0.15343,0.0833 0.22473,0.12127 0.1933,-0.0816 -0.047,-0.26606 -0.15161,-0.5162 -0.26977,-0.75812 -0.1794,-0.3451 -0.38863,-0.67405 -0.55416,-1.02646 -0.0234,-0.0514 -0.33851,-0.86131 -0.43656,-0.57668 -0.018,0.058 -0.0371,0.11544 -0.0617,0.17109 -0.049,0.12324 -0.0789,0.25302 -0.12496,0.37739 -0.10262,0.28566 -0.21449,0.56789 -0.32253,0.85152 -0.13218,0.35544 -0.26802,0.70944 -0.40554,1.06284 0,0 0.23092,0.21184 0.23092,0.21184 z" />
      <path
         style="fill:#0000ff;stroke:#0000ff;stroke-width:0.499999;stroke-linejoin:bevel;stroke-miterlimit:4;stroke-dasharray:none"
         id="path2763"
         d="m 102.69614,118.64149 c 0.17759,0.009 0.35507,0.0217 0.53274,0.0288 0.0574,0.002 0.11711,0.0204 0.17215,0.004 0.0845,-0.0934 0.0355,-0.0657 0.13884,-0.0959 0,0 -0.006,-0.008 -0.006,-0.008 v 0 c -0.11817,-0.0484 -0.22784,-0.11925 -0.35057,-0.15455 -0.0583,-0.0168 -0.12078,-0.0108 -0.18127,-0.0149 -0.17744,-0.012 -0.35535,-0.0166 -0.53273,-0.0299 0,0 0.2272,0.27002 0.2272,0.27002 z" />
      <path
         style="fill:#0000ff;stroke:#0000ff;stroke-width:0.499999;stroke-linejoin:bevel;stroke-miterlimit:4;stroke-dasharray:none"
         id="path2765"
         d="m 97.849123,112.70396 c 0.442195,0.0325 0.883584,0.0742 1.324408,0.12158 0.417817,0.0472 0.836289,0.0881 1.255119,0.12508 0.21231,0.0194 0.42505,0.0341 0.63684,0.0588 0.13311,0.0271 0.008,-0.094 -0.0242,-0.1358 0,0 -0.006,-0.008 -0.006,-0.008 v 0 c -0.0644,-0.0722 -0.11681,-0.15608 -0.22149,-0.15769 -0.21013,-0.0172 -0.42032,-0.0336 -0.63048,-0.0504 -0.417282,-0.035 -0.834218,-0.0742 -1.250402,-0.12064 -0.441778,-0.0467 -0.884018,-0.0884 -1.326873,-0.1235 0,0 0.24351,0.29029 0.24351,0.29029 z" />
      <path
         style="fill:#0000ff;stroke:#0000ff;stroke-width:0.499999;stroke-linejoin:bevel;stroke-miterlimit:4;stroke-dasharray:none"
         id="path2767"
         d="m 101.22279,112.03273 c -0.0477,0.31713 -0.1179,0.6301 -0.19708,0.94067 -0.0333,0.12899 -0.0708,0.2568 -0.11127,0.3837 -0.13097,0.41969 0.46351,0.23496 0.58545,0.21236 0.41899,-0.075 0.84418,-0.10763 1.26799,-0.14244 0.0683,-0.0265 0.44592,0.004 0.49325,-0.0448 0.0111,-0.0113 0.0108,-0.0297 0.0162,-0.0446 -0.32167,-0.41473 -0.7871,-0.70226 -1.21675,-0.99368 -0.0234,-0.0124 -0.51983,-0.35862 -0.52857,-0.34598 -0.0223,0.0323 0.0211,0.0757 0.0317,0.11352 0,0 0.006,0.008 0.006,0.008 v 0 c 0.0595,0.0547 0.11685,0.11175 0.17848,0.164 0.16538,0.14023 0.37152,0.22905 0.54116,0.3635 0.20613,0.13896 0.41191,0.27819 0.61048,0.42791 0.0574,0.0433 0.14424,0.19982 0.1699,0.1327 0.0274,-0.0718 -0.10991,-0.10853 -0.15545,-0.17051 -0.0165,-0.0225 0.0447,0.0335 0.067,0.0502 0.006,0.004 0.0217,0.004 0.0184,0.0108 -0.0193,0.0373 -0.4244,0.0427 -0.46926,0.0563 -0.42457,0.0387 -0.85061,0.0723 -1.27107,0.14465 -0.53613,0.10755 0.13927,-0.0289 -0.24269,0.0507 -0.0201,0.004 -0.0715,-0.006 -0.0605,0.0114 0.06,0.0938 0.15027,0.16445 0.2254,0.24667 -0.0167,0.002 -0.0125,0.005 -0.007,-0.0143 0.0367,-0.13069 0.0685,-0.26275 0.10185,-0.39433 0.0766,-0.31239 0.14204,-0.62737 0.19755,-0.9442 0,0 -0.25171,-0.22192 -0.25171,-0.22192 z" />
      <path
         style="fill:#0000ff;stroke:#0000ff;stroke-width:0.499999;stroke-linejoin:bevel;stroke-miterlimit:4;stroke-dasharray:none"
         id="path2915"
         d="m 101.81294,113.10148 c 0.22956,-0.0178 0.45855,0.004 0.68368,0.0488 0.144,0.0413 0.14624,0.0335 0.0509,-0.0739 0,0 0.008,0.006 0.008,0.006 v 0 c -0.0783,-0.10293 -0.14974,-0.2038 -0.28884,-0.21147 -0.22486,-0.0373 -0.45187,-0.0488 -0.67946,-0.0299 0,0 0.22578,0.26045 0.22578,0.26045 z" />
    </g>
    <path
       style="fill:#000000;stroke:#000000;stroke-width:0.739437;stroke-linejoin:bevel;stroke-miterlimit:4;stroke-dasharray:none"
       id="path3111"
       d="m 127.65226,161.91561 c -0.0399,0.50285 -0.0658,1.00664 -0.0921,1.51034 -0.0309,0.64818 -0.0676,1.29605 -0.10293,1.94399 -0.029,0.63902 -0.0834,1.27538 -0.19535,1.90529 -0.15135,0.72738 -0.41105,1.42546 -0.69049,2.1118 -0.1047,0.24607 -0.22325,0.48604 -0.3526,0.72006 -0.0572,0.10352 -0.12334,0.19005 -0.15248,0.30441 0.0346,0.14124 0.001,0.0599 0.13887,0.22354 0,0 0.0104,0.0103 0.0104,0.0103 v 0 c 0.17716,0.13783 0.0915,0.11905 0.22982,0.12763 0.0917,-0.0719 0.1328,-0.17522 0.18634,-0.27818 0.12526,-0.24069 0.24029,-0.48673 0.34008,-0.73913 0.27683,-0.69075 0.54361,-1.39044 0.69753,-2.12053 0.11491,-0.63243 0.16985,-1.27102 0.19653,-1.91319 0.0343,-0.64975 0.0685,-1.29946 0.0972,-1.94949 0.0212,-0.50981 0.0186,-1.02106 0.066,-1.52941 0,0 -0.37635,-0.32794 -0.37635,-0.32794 z" />
    <path
       style="fill:#000000;stroke:#000000;stroke-width:0.739437;stroke-linejoin:bevel;stroke-miterlimit:4;stroke-dasharray:none"
       id="path3113"
       d="m 124.82468,161.80902 c 0.73154,-0.0529 1.46049,-0.12511 2.19381,-0.1539 0.89164,-0.0151 1.77962,0.0804 2.65322,0.25295 0.43173,0.0994 0.87146,0.21065 1.25532,0.44134 0.21321,0.12807 0.28779,0.20904 0.47239,0.3723 -0.0625,-0.0593 -0.16726,-0.26168 -0.1875,-0.17793 -0.0222,0.0917 0.12156,0.14463 0.17708,0.22103 0.21565,0.29682 0.33946,0.6192 0.43775,0.96925 0.12807,0.50874 0.0557,0.93056 -0.15322,1.40065 -0.31797,0.63195 -0.87344,1.05181 -1.46964,1.401 -0.64953,0.35122 -1.36034,0.53838 -2.08311,0.66202 -0.12792,0.0466 -0.56729,0.0386 -0.68093,0.11298 -0.37735,0.24687 0.21457,0.0297 -0.17501,0.15493 0,0 0.009,0.0118 0.009,0.0118 v 0 c 0.0648,0.0223 0.13074,0.0416 0.19433,0.0671 0.0951,0.0382 0.18215,0.0978 0.28116,0.12393 0.236,0.0624 0.5098,-0.0359 0.74325,-0.0495 0.72638,-0.13162 1.44139,-0.32312 2.09358,-0.68003 0.60419,-0.35501 1.17173,-0.78191 1.50086,-1.41861 0.22052,-0.4785 0.30034,-0.91034 0.17589,-1.4328 -0.21936,-0.80625 -0.55372,-1.23825 -1.1922,-1.81034 -0.19364,-0.16383 -0.25874,-0.23402 -0.48127,-0.36101 -0.38615,-0.22035 -0.82437,-0.32346 -1.25438,-0.41682 -0.87534,-0.16506 -1.76379,-0.25821 -2.65579,-0.23699 -0.72933,0.0334 -1.45431,0.11136 -2.18205,0.1654 0,0 0.32697,0.3817 0.32697,0.3817 z" />
    <path
       style="fill:#000000;stroke:#000000;stroke-width:0.739437;stroke-linejoin:bevel;stroke-miterlimit:4;stroke-dasharray:none"
       id="path3115"
       d="m 129.37824,167.60678 c 0.13872,0.59374 0.41606,1.13515 0.73505,1.64965 0.47101,0.68657 1.05661,1.28984 1.69278,1.82469 0.31394,0.24522 0.63144,0.48861 0.96759,0.70305 0.0933,0.0237 0.0479,0.0217 -0.0506,-0.12659 0,0 -0.043,-0.0574 -0.043,-0.0574 v 0 c -0.17575,-0.21145 -0.0908,-0.13059 -0.24008,-0.25708 -0.32303,-0.22845 -0.65323,-0.44759 -0.95825,-0.7005 -0.0748,-0.0636 -0.1328,-0.15537 -0.22449,-0.19061 -0.0676,-0.026 0.20065,0.20894 0.14655,0.16065 -0.34044,-0.30403 -0.61097,-0.68299 -0.88292,-1.04579 -0.32581,-0.51129 -0.61344,-1.04944 -0.75606,-1.64365 0,0 -0.38665,-0.31638 -0.38665,-0.31638 z" />
    <path
       style="fill:#000000;stroke:#000000;stroke-width:0.739437;stroke-linejoin:bevel;stroke-miterlimit:4;stroke-dasharray:none"
       id="path3117"
       d="m 134.69198,171.69183 c 0.43921,0.071 0.88245,0.1121 1.32416,0.1639 0.318,0.0293 0.49623,0.16167 -0.10278,-0.35418 -0.0256,-0.022 -0.067,-0.006 -0.10057,-0.0104 -0.0587,-0.006 -0.11727,-0.0103 -0.17591,-0.0161 -0.44034,-0.0382 -0.87902,-0.0936 -1.31568,-0.16168 -0.10131,-0.0198 -0.20432,-0.0318 -0.30474,-0.056 0.11861,0.092 0.22013,0.21183 0.35591,0.27578 0.0328,0.0154 -10e-4,-0.0726 -10e-4,-0.10885 7.8e-4,-0.21332 0.0152,-0.42668 0.0217,-0.63991 0.0118,-0.37483 0.0133,-0.74989 0.0321,-1.12448 0.017,-0.18528 0.0316,-0.37329 0.084,-0.55267 0.0509,-0.1396 0.14789,-0.23091 0.27852,-0.29419 0.2367,-0.0939 0.49146,-0.11964 0.74312,-0.13931 0.30429,-0.0208 0.59811,0.0133 0.8686,0.15678 0.0345,0.0268 0.13369,0.11195 0.10352,0.0803 -0.57797,-0.60525 -0.24251,-0.26698 -0.19953,-0.058 0.0235,0.11431 0.007,0.13931 -0.0157,0.25028 -0.15695,0.35751 -0.56811,0.436 -0.91196,0.51786 -0.37173,0.0961 -0.75789,0.0639 -1.13477,0.10544 -0.0423,0.12349 -0.0334,0.0528 7.8e-4,0.21384 0,0 0.0103,0.0118 0.0103,0.0118 v 0 c 0.232,0.14241 0.11772,0.0818 0.34052,0.18595 0.38703,0.0343 0.77805,-0.0345 1.15871,-0.0977 0.36657,-0.0899 0.78741,-0.18285 0.9595,-0.55858 0.12969,-0.5027 -0.23594,-0.81681 -0.65411,-1.09195 -0.28003,-0.12807 -0.57747,-0.15492 -0.88338,-0.12748 -0.2566,0.0234 -0.51565,0.0575 -0.75596,0.15569 -0.14241,0.0725 -0.24932,0.17349 -0.31133,0.32401 -0.0578,0.18393 -0.0676,0.3791 -0.0844,0.56997 -0.0176,0.37789 -0.0104,0.75621 -0.022,1.13429 -0.003,0.0736 -0.0389,0.72363 -0.0188,0.75482 0.10485,0.1629 0.24197,0.30266 0.36295,0.45398 0.0981,0.0118 0.19553,0.0288 0.29385,0.0389 0.43718,0.0571 0.87478,0.11091 1.31337,0.15597 0.0598,0.007 0.11965,0.0133 0.17944,0.0209 0.0348,0.004 0.11949,0.0447 0.10426,0.0133 -0.20051,-0.41341 -0.21107,-0.37787 -0.52211,-0.39231 -0.43351,-0.0324 -0.86523,-0.0831 -1.29682,-0.13472 0,0 0.27746,0.33468 0.27746,0.33468 z" />
    <path
       style="fill:#000000;stroke:#000000;stroke-width:0.739437;stroke-linejoin:bevel;stroke-miterlimit:4;stroke-dasharray:none"
       id="path3123"
       d="m 43.139363,87.297245 c 0.702179,-0.01183 1.404173,-0.02455 2.106505,-0.02381 0.449721,0.003 0.899363,0.0089 1.348912,0.02248 0.278956,0.0074 0.551748,0.0386 0.827058,-0.0089 -0.005,-0.135908 -0.03851,-0.102782 0.0087,-0.141085 0,0 -0.0092,-0.01183 -0.0092,-0.01183 v 0 c -0.128367,-0.0843 -0.03447,-0.02307 -0.283201,-0.181754 -0.730989,-0.136204 -1.492596,-0.02618 -2.231505,-0.07616 -0.702069,-7.84e-4 -1.403899,0.01183 -2.105828,0.02337 0,0 0.338557,0.397714 0.338557,0.397714 z" />
    <path
       style="fill:#000000;stroke:#000000;stroke-width:0.739437;stroke-linejoin:bevel;stroke-miterlimit:4;stroke-dasharray:none"
       id="path3125"
       d="m 45.422429,87.615188 c 0.120794,0.518983 0.209043,1.043866 0.27316,1.572623 0.0637,0.576836 0.08946,1.156807 0.09957,1.736764 0.0028,0.396457 7.82e-4,0.792988 -0.01139,1.189268 -0.0089,0.255047 -0.02746,0.509518 -0.04658,0.763944 -0.01553,0.105 0.0046,0.142563 0.09392,0.200033 0,0 0.184335,0.22189 0.184335,0.22189 v 0 c 0.130807,0.06374 0.143939,0.09509 0.151107,-0.04999 0.01698,-0.25799 0.02622,-0.516379 0.03761,-0.77465 0.01213,-0.398735 0.01035,-0.797721 0.007,-1.196589 -0.01065,-0.582855 -0.04088,-1.165488 -0.1012,-1.745445 -0.0648,-0.533505 -0.154179,-1.062721 -0.281108,-1.585282 0,0 -0.406332,-0.332599 -0.406332,-0.332599 z" />
    <path
       style="fill:#000000;stroke:#000000;stroke-width:0.739437;stroke-linejoin:bevel;stroke-miterlimit:4;stroke-dasharray:none"
       id="path3127"
       d="m 43.570193,93.508439 c 0.754289,-0.03224 1.507477,-0.0945 2.261269,-0.140641 0.432275,-0.02677 0.865029,-0.04481 1.29778,-0.06167 0.01847,-7.84e-4 0.500725,-0.01479 0.524245,-0.02869 0.04006,-0.02381 0.02332,-0.09036 0.03495,-0.135465 0.0012,-0.02884 0.0024,-0.05782 0.0035,-0.08666 0,0 -0.0098,-0.01183 -0.0098,-0.01183 v 0 c -0.04669,-0.02366 -0.09336,-0.04747 -0.140035,-0.07113 -0.08384,-0.03875 -0.161496,-0.09553 -0.251487,-0.11624 -0.04546,-0.01035 -0.520958,0.02189 -0.52963,0.02233 -0.428384,0.0244 -0.856795,0.04821 -1.28485,0.07823 -0.743445,0.05117 -1.486458,0.10574 -2.228453,0.174715 0,0 0.322423,0.376433 0.322423,0.376433 z" />
    <path
       style="fill:#000000;stroke:#000000;stroke-width:0.739437;stroke-linejoin:bevel;stroke-miterlimit:4;stroke-dasharray:none"
       id="path3129"
       d="m 48.123621,90.785945 c 0.186824,0.449712 0.269558,0.931544 0.346175,1.409665 0.04587,0.287243 0.07229,0.576807 0.09239,0.866785 0.0098,0.20515 0.0096,0.206984 0.38101,0.326477 0.0378,0.01183 -0.004,-0.07927 -0.0047,-0.118902 -0.0012,-0.05265 -3.92e-4,-0.105444 -7.82e-4,-0.158151 -0.0053,-0.349296 0.08835,-0.6728 0.237623,-0.984311 0.109939,-0.195936 0.217637,-0.400095 0.413043,-0.521422 0.210132,-0.07321 0.399432,0.08962 0.539062,0.229669 -0.08955,-0.08356 -0.164989,-0.185407 -0.268638,-0.25064 -0.04465,-0.0281 0.05859,0.08785 0.08376,0.134282 0.110353,0.203287 0.165514,0.424674 0.21327,0.648961 0.0402,0.224804 0.04194,0.453468 0.03478,0.680919 0.03186,-0.02972 -0.02113,0.07809 -0.0019,0.06685 0.01593,-0.0089 0.018,-0.05561 0.03274,-0.04452 0.125719,0.09465 0.215666,0.231297 0.341269,0.326048 0.02058,0.01553 -0.008,-0.05102 -0.01065,-0.07661 -0.004,-0.03934 -0.0061,-0.07897 -0.0092,-0.118458 -0.02977,-0.316228 0.01154,-0.621897 0.120646,-0.918471 0.09867,-0.21105 0.235519,-0.428963 0.488524,-0.437718 0.0083,-0.09627 0.345581,0.23103 0.26109,0.149988 -0.09941,-0.09539 -0.190251,-0.200669 -0.298743,-0.285557 -0.03138,-0.02455 0.045,0.06596 0.06328,0.101304 0.01937,0.03741 0.03286,0.07764 0.04928,0.116535 0.07671,0.338367 0.155896,0.661102 0.33687,0.960398 0.222752,0.275174 0.167306,0.215856 0.582472,0.609859 0.01761,0.01671 0.05982,0.05812 0.06415,0.03431 0.0075,-0.04111 -0.03298,-0.07675 -0.04947,-0.115057 0,0 -0.0089,-0.01183 -0.0089,-0.01183 v 0 c -0.06708,-0.07453 -0.132552,-0.150402 -0.201254,-0.223384 -0.418931,-0.445068 0.448619,0.486077 0.03922,0.03046 -0.200402,-0.302298 -0.281641,-0.601741 -0.346723,-0.955103 -0.133661,-0.369779 -0.439899,-0.747026 -0.839387,-0.810957 -0.26759,0.04466 -0.411793,0.254278 -0.517206,0.491194 -0.112114,0.302208 -0.15752,0.614872 -0.130748,0.937741 2.28e-4,0.0044 0.0077,0.19255 0.01168,0.197933 0.04006,0.05368 0.377533,0.625801 0.41395,0.31225 0.01331,-0.231326 0.0038,-0.464279 -0.02989,-0.693549 -0.120529,-0.59655 -0.242152,-0.827801 -0.726772,-1.270474 -0.164348,-0.144486 -0.367704,-0.287316 -0.591018,-0.184874 -0.194489,0.137979 -0.314226,0.340763 -0.422854,0.549758 -0.152254,0.317855 -0.248273,0.648605 -0.247869,1.004586 -2.82e-4,0.02174 -0.005,0.268756 2.23e-4,0.27584 0.395215,0.535679 0.389448,0.568185 0.382021,0.318313 -0.01375,-0.294518 -0.05655,-0.58704 -0.09863,-0.878556 -0.07776,-0.481848 -0.156655,-0.968191 -0.343436,-1.42228 0,0 -0.379759,-0.299133 -0.379759,-0.299133 z" />
    <path
       style="fill:#ff0000;stroke:#ff0000;stroke-width:0.264583px;stroke-linecap:butt;stroke-linejoin:miter;stroke-opacity:1"
       d="m 81.29107,124.54624 v 0 l -2.362481,5.97994 -3.02483,-2.63252 z"
       id="path1277"
       sodipodi:nodetypes="ccccc" />
  </g>
</svg>
